<svg xmlns="http://www.w3.org/2000/svg" xmlns:xlink="http://www.w3.org/1999/xlink" width="200" zoomAndPan="magnify" viewBox="0 0 150 149.999998" height="200" preserveAspectRatio="xMidYMid meet" version="1.0"><defs><filter x="0%" y="0%" width="100%" xlink:type="simple" xlink:actuate="onLoad" height="100%" id="id1" xlink:show="other"><feColorMatrix values="0 0 0 0 1 0 0 0 0 1 0 0 0 0 1 0 0 0 1 0" color-interpolation-filters="sRGB"/></filter><mask id="id2"><g filter="url(#id1)"><rect x="-15" width="180" fill="rgb(0%, 0%, 0%)" y="-15" height="179.999997" fill-opacity="0.2471"/></g></mask><clipPath id="id3"><path d="M 5 15 L 72 15 L 72 66 L 5 66 Z M 5 15 " clip-rule="nonzero"/></clipPath><clipPath id="id4"><path d="M 84.171875 54.503906 L 16.152344 82.359375 L -8.007812 23.363281 L 60.011719 -4.492188 Z M 84.171875 54.503906 " clip-rule="nonzero"/></clipPath><clipPath id="id5"><path d="M 84.171875 54.503906 L 16.152344 82.359375 L -8.007812 23.363281 L 60.011719 -4.492188 Z M 84.171875 54.503906 " clip-rule="nonzero"/></clipPath><clipPath id="id6"><rect x="0" width="76" y="0" height="77"/></clipPath><clipPath id="id7"><path d="M 40 35 L 121.257812 35 L 121.257812 116.332031 L 40 116.332031 Z M 40 35 " clip-rule="nonzero"/></clipPath><clipPath id="id8"><path d="M 83 28.582031 L 103 28.582031 L 103 61 L 83 61 Z M 83 28.582031 " clip-rule="nonzero"/></clipPath></defs><g mask="url(#id2)"><g transform="matrix(1, 0, 0, 1, 37, 39)"><g clip-path="url(#id6)"><g clip-path="url(#id3)"><g clip-path="url(#id4)"><g clip-path="url(#id5)"><path fill="rgb(23.919678%, 47.059631%, 53.729248%)" d="M 30.433594 64.011719 C 18.003906 59.535156 -5.355469 29.710938 12.457031 17.984375 C 24.5 10.050781 26.398438 22.722656 42.882812 32.621094 C 48.34375 35.890625 75.085938 32.449219 71.132812 49.359375 C 68.785156 59.375 46.691406 69.851562 30.433594 64.011719 Z M 30.433594 64.011719 " fill-opacity="1" fill-rule="nonzero"/></g></g></g></g></g></g><g clip-path="url(#id7)"><path fill="rgb(0%, 23.529053%, 29.40979%)" d="M 104.78125 43.507812 C 104.667969 43.417969 104.546875 43.386719 104.40625 43.402344 C 104.265625 43.421875 104.15625 43.488281 104.070312 43.601562 C 103.988281 43.710938 103.957031 43.835938 103.980469 43.976562 C 104.003906 44.113281 104.070312 44.222656 104.1875 44.304688 C 114.121094 51.679688 119.902344 63.03125 120.050781 75.441406 C 120.101562 79.5625 119.523438 83.589844 118.3125 87.523438 C 117.546875 88.5 116.789062 89.472656 116 90.429688 C 115.113281 91.527344 114.171875 92.578125 113.171875 93.578125 C 112.945312 93.800781 112.714844 94.015625 112.480469 94.226562 C 112.367188 94.324219 112.25 94.425781 112.132812 94.519531 L 111.972656 94.652344 L 111.902344 94.707031 C 111.953125 94.664062 111.886719 94.707031 111.871094 94.726562 C 111.304688 95.160156 110.691406 95.53125 110.105469 95.941406 C 109.464844 96.359375 108.886719 96.855469 108.375 97.421875 C 107.882812 97.996094 107.535156 98.648438 107.335938 99.378906 C 107.148438 100.082031 107.105469 100.792969 107.214844 101.515625 C 107.320312 102.238281 107.566406 102.90625 107.953125 103.523438 C 108.054688 103.679688 108.167969 103.828125 108.285156 103.976562 C 106.46875 105.773438 104.492188 107.378906 102.359375 108.792969 C 100.226562 110.207031 97.976562 111.398438 95.605469 112.371094 C 93.238281 113.339844 90.800781 114.074219 88.289062 114.566406 C 85.777344 115.0625 83.242188 115.308594 80.679688 115.304688 L 80.613281 115.304688 C 78.082031 115.316406 75.574219 115.082031 73.085938 114.609375 C 70.601562 114.132812 68.183594 113.425781 65.835938 112.480469 C 63.488281 111.539062 61.25 110.382812 59.128906 109.007812 C 57.003906 107.632812 55.03125 106.066406 53.210938 104.3125 C 53.507812 103.789062 53.738281 103.242188 53.902344 102.664062 C 54.0625 102.085938 54.148438 101.496094 54.160156 100.894531 C 54.171875 100.296875 54.109375 99.703125 53.976562 99.117188 C 53.839844 98.535156 53.632812 97.976562 53.355469 97.441406 C 52.800781 96.386719 51.929688 95.59375 51.105469 94.761719 C 50.902344 94.554688 50.714844 94.351562 50.535156 94.144531 L 50.40625 93.992188 L 50.394531 93.976562 C 50.378906 93.957031 50.359375 93.929688 50.34375 93.910156 C 50.265625 93.800781 50.1875 93.691406 50.117188 93.574219 C 50.050781 93.46875 49.988281 93.359375 49.933594 93.246094 L 49.890625 93.152344 C 49.863281 93.085938 49.84375 93.023438 49.820312 92.957031 C 49.78125 92.839844 49.75 92.714844 49.726562 92.59375 C 49.726562 92.566406 49.714844 92.535156 49.710938 92.507812 L 49.710938 92.480469 C 49.710938 92.414062 49.710938 92.347656 49.699219 92.277344 C 49.699219 92.167969 49.699219 92.070312 49.714844 91.957031 C 49.714844 91.957031 49.714844 91.96875 49.714844 91.972656 C 49.722656 91.945312 49.726562 91.917969 49.730469 91.886719 C 49.730469 91.832031 49.75 91.777344 49.765625 91.722656 C 49.789062 91.621094 49.816406 91.519531 49.851562 91.421875 C 49.871094 91.367188 49.890625 91.316406 49.910156 91.261719 L 49.941406 91.191406 C 50.136719 90.777344 50.375 90.386719 50.65625 90.023438 C 50.675781 89.996094 50.695312 89.972656 50.710938 89.949219 L 50.8125 89.824219 L 51.050781 89.53125 C 51.203125 89.34375 51.355469 89.160156 51.507812 88.976562 C 51.828125 88.589844 52.125 88.1875 52.390625 87.761719 C 52.917969 86.890625 53.1875 85.847656 52.859375 84.851562 C 52.476562 83.683594 51.457031 82.84375 50.382812 82.324219 C 49.101562 81.734375 47.757812 81.40625 46.351562 81.339844 C 44.921875 81.25 43.519531 81.414062 42.148438 81.824219 C 41.96875 81.878906 41.796875 81.9375 41.621094 82 C 41.328125 80.078125 41.175781 78.144531 41.160156 76.203125 C 41.121094 71.582031 41.875 67.09375 43.425781 62.734375 C 43.648438 62.128906 43.996094 61.605469 44.476562 61.167969 C 44.953125 60.730469 45.507812 60.429688 46.132812 60.261719 C 47.800781 59.792969 49.058594 59.789062 49.664062 60.261719 C 50 60.511719 50.164062 60.925781 50.164062 61.523438 C 50.164062 63.472656 49.265625 65.34375 48.3125 67.324219 C 47.359375 69.304688 46.367188 71.378906 46.367188 73.554688 C 46.367188 74.738281 46.484375 75.996094 47.335938 76.351562 C 48.507812 76.835938 50.148438 75.46875 54.792969 70.828125 C 57.484375 68.140625 60.085938 67.542969 62.175781 67.050781 C 64.5625 66.496094 66.625 66.023438 67.324219 62.710938 C 67.960938 59.707031 66.871094 56.816406 65.90625 54.265625 C 64.976562 51.800781 64.101562 49.488281 64.890625 47.488281 C 65.761719 45.289062 66.722656 44.371094 67.542969 43.761719 C 67.972656 43.453125 68.339844 43.085938 68.652344 42.660156 C 68.964844 42.230469 69.199219 41.769531 69.359375 41.265625 C 69.523438 40.765625 69.601562 40.25 69.601562 39.722656 C 69.597656 39.195312 69.511719 38.679688 69.34375 38.179688 C 72.734375 37.175781 76.199219 36.636719 79.734375 36.5625 L 79.746094 36.5625 C 80.160156 36.5625 80.550781 36.546875 80.949219 36.5625 C 81.085938 36.5625 81.203125 36.511719 81.300781 36.414062 C 81.398438 36.320312 81.449219 36.203125 81.449219 36.0625 C 81.449219 35.925781 81.398438 35.808594 81.300781 35.710938 C 81.203125 35.617188 81.085938 35.566406 80.949219 35.566406 L 80.511719 35.566406 C 77.742188 35.570312 75.003906 35.851562 72.292969 36.414062 C 69.585938 36.976562 66.960938 37.808594 64.421875 38.910156 C 61.882812 40.011719 59.484375 41.359375 57.222656 42.953125 C 54.960938 44.546875 52.886719 46.351562 50.996094 48.371094 C 50.898438 48.46875 50.855469 48.589844 50.859375 48.726562 C 50.863281 48.867188 50.914062 48.984375 51.015625 49.078125 C 51.117188 49.171875 51.238281 49.214844 51.375 49.210938 C 51.515625 49.203125 51.628906 49.152344 51.722656 49.046875 C 54.003906 46.605469 56.554688 44.488281 59.378906 42.699219 C 62.199219 40.90625 65.199219 39.492188 68.382812 38.464844 C 68.519531 38.867188 68.589844 39.277344 68.59375 39.703125 C 68.597656 40.128906 68.53125 40.542969 68.402344 40.945312 C 68.273438 41.351562 68.085938 41.722656 67.835938 42.066406 C 67.585938 42.410156 67.285156 42.707031 66.941406 42.953125 C 66.003906 43.644531 64.921875 44.679688 63.957031 47.117188 C 63.027344 49.46875 63.96875 51.964844 64.964844 54.605469 C 65.925781 57.148438 66.917969 59.777344 66.34375 62.496094 C 65.773438 65.179688 64.328125 65.519531 61.941406 66.074219 C 59.726562 66.585938 56.972656 67.226562 54.082031 70.113281 C 51.839844 72.347656 48.457031 75.722656 47.707031 75.421875 C 47.648438 75.394531 47.355469 75.191406 47.355469 73.546875 C 47.355469 71.59375 48.25 69.726562 49.203125 67.742188 C 50.160156 65.761719 51.148438 63.6875 51.148438 61.511719 C 51.148438 60.597656 50.851562 59.90625 50.257812 59.460938 C 49.375 58.789062 47.890625 58.734375 45.855469 59.304688 C 45.074219 59.519531 44.386719 59.898438 43.792969 60.449219 C 43.199219 60.996094 42.765625 61.652344 42.492188 62.410156 C 42.21875 63.167969 41.972656 63.933594 41.746094 64.707031 C 41.519531 65.480469 41.320312 66.261719 41.140625 67.046875 C 40.960938 67.832031 40.804688 68.621094 40.675781 69.414062 C 40.542969 70.207031 40.4375 71.003906 40.351562 71.804688 C 40.269531 72.605469 40.210938 73.410156 40.175781 74.214844 C 40.140625 75.019531 40.128906 75.824219 40.140625 76.628906 C 40.15625 77.433594 40.191406 78.238281 40.253906 79.039062 C 40.3125 79.839844 40.398438 80.640625 40.507812 81.441406 C 40.617188 82.238281 40.75 83.03125 40.90625 83.820312 C 41.066406 84.609375 41.246094 85.394531 41.449219 86.171875 C 41.652344 86.953125 41.878906 87.722656 42.128906 88.488281 C 42.378906 89.253906 42.652344 90.011719 42.949219 90.761719 C 43.246094 91.507812 43.5625 92.25 43.902344 92.980469 C 44.242188 93.707031 44.605469 94.429688 44.988281 95.136719 C 45.371094 95.84375 45.773438 96.539062 46.199219 97.226562 C 46.625 97.910156 47.070312 98.582031 47.535156 99.238281 C 48 99.894531 48.484375 100.539062 48.988281 101.167969 C 49.492188 101.796875 50.011719 102.410156 50.554688 103.003906 C 51.09375 103.601562 51.652344 104.183594 52.226562 104.746094 C 52.800781 105.3125 53.394531 105.859375 54.003906 106.386719 C 54.609375 106.914062 55.234375 107.425781 55.871094 107.917969 C 56.511719 108.410156 57.164062 108.878906 57.832031 109.332031 C 58.5 109.785156 59.179688 110.21875 59.871094 110.628906 C 60.5625 111.039062 61.269531 111.429688 61.984375 111.800781 C 62.703125 112.167969 63.429688 112.519531 64.164062 112.84375 C 64.902344 113.167969 65.648438 113.472656 66.402344 113.753906 C 67.160156 114.035156 67.921875 114.296875 68.695312 114.53125 C 69.464844 114.765625 70.242188 114.980469 71.027344 115.167969 C 71.808594 115.359375 72.597656 115.523438 73.390625 115.664062 C 74.183594 115.808594 74.980469 115.925781 75.78125 116.019531 C 76.582031 116.117188 77.386719 116.1875 78.191406 116.234375 C 78.996094 116.277344 79.800781 116.300781 80.609375 116.300781 L 80.679688 116.300781 C 82.015625 116.296875 83.34375 116.230469 84.671875 116.097656 C 85.996094 115.960938 87.3125 115.761719 88.621094 115.5 C 89.925781 115.234375 91.21875 114.910156 92.492188 114.515625 C 93.765625 114.125 95.019531 113.671875 96.25 113.160156 C 97.480469 112.644531 98.679688 112.070312 99.851562 111.4375 C 101.023438 110.804688 102.164062 110.113281 103.269531 109.367188 C 104.371094 108.621094 105.4375 107.824219 106.460938 106.972656 C 107.488281 106.121094 108.46875 105.222656 109.40625 104.273438 C 110.339844 103.324219 111.226562 102.335938 112.066406 101.300781 C 112.90625 100.261719 113.6875 99.1875 114.421875 98.078125 C 115.152344 96.964844 115.828125 95.816406 116.445312 94.636719 C 117.0625 93.457031 117.621094 92.25 118.121094 91.015625 C 118.617188 89.78125 119.054688 88.523438 119.429688 87.246094 C 119.800781 85.96875 120.113281 84.675781 120.359375 83.367188 C 120.605469 82.058594 120.785156 80.742188 120.898438 79.417969 C 121.015625 78.089844 121.066406 76.761719 121.046875 75.429688 C 120.894531 62.707031 114.964844 51.066406 104.78125 43.507812 Z M 41.792969 83.007812 C 42.320312 82.8125 42.859375 82.65625 43.410156 82.542969 C 43.570312 82.507812 43.738281 82.480469 43.902344 82.453125 L 44.160156 82.414062 L 44.175781 82.414062 L 44.355469 82.390625 C 44.6875 82.355469 45.019531 82.332031 45.355469 82.324219 C 45.691406 82.316406 46.050781 82.324219 46.402344 82.347656 C 46.570312 82.359375 46.734375 82.371094 46.898438 82.390625 L 47.09375 82.414062 L 47.171875 82.425781 L 47.308594 82.445312 C 47.980469 82.550781 48.632812 82.714844 49.273438 82.9375 L 49.480469 83.015625 L 49.582031 83.058594 C 49.71875 83.113281 49.851562 83.175781 49.980469 83.242188 C 50.230469 83.367188 50.46875 83.507812 50.699219 83.664062 C 50.75 83.703125 50.8125 83.742188 50.863281 83.785156 L 50.949219 83.855469 C 51.0625 83.949219 51.171875 84.046875 51.273438 84.152344 C 51.359375 84.234375 51.4375 84.324219 51.511719 84.417969 C 51.5 84.402344 51.492188 84.390625 51.511719 84.433594 L 51.574219 84.523438 C 51.613281 84.578125 51.652344 84.640625 51.6875 84.699219 C 51.722656 84.761719 51.757812 84.820312 51.789062 84.886719 C 51.800781 84.90625 51.808594 84.925781 51.820312 84.949219 C 51.820312 84.953125 51.820312 84.960938 51.820312 84.964844 C 51.882812 85.089844 51.921875 85.222656 51.941406 85.363281 C 51.957031 85.414062 51.96875 85.46875 51.972656 85.523438 L 51.972656 85.550781 C 51.976562 85.578125 51.976562 85.605469 51.972656 85.628906 C 51.980469 85.742188 51.980469 85.851562 51.972656 85.964844 C 51.972656 86.011719 51.933594 86.199219 51.972656 86.03125 C 51.960938 86.078125 51.957031 86.125 51.949219 86.171875 C 51.933594 86.28125 51.917969 86.390625 51.890625 86.5 C 51.863281 86.589844 51.828125 86.675781 51.792969 86.761719 L 51.761719 86.832031 L 51.683594 86.988281 C 51.578125 87.1875 51.460938 87.382812 51.332031 87.570312 C 51.273438 87.65625 51.210938 87.742188 51.148438 87.828125 C 51.113281 87.875 51.082031 87.917969 51.046875 87.960938 C 51.027344 87.984375 51.011719 88.011719 50.988281 88.035156 C 50.699219 88.402344 50.394531 88.761719 50.101562 89.125 C 49.511719 89.863281 48.917969 90.671875 48.75 91.621094 C 48.644531 92.171875 48.679688 92.714844 48.855469 93.246094 C 49.058594 93.800781 49.351562 94.300781 49.738281 94.75 C 50.097656 95.171875 50.480469 95.574219 50.878906 95.957031 C 51.085938 96.160156 51.28125 96.351562 51.472656 96.554688 C 51.558594 96.648438 51.644531 96.742188 51.730469 96.839844 L 51.871094 97.003906 L 51.917969 97.0625 L 51.953125 97.105469 C 52.125 97.335938 52.277344 97.574219 52.417969 97.824219 C 52.480469 97.9375 52.539062 98.058594 52.597656 98.175781 C 52.625 98.242188 52.65625 98.300781 52.683594 98.367188 L 52.738281 98.507812 C 52.839844 98.777344 52.921875 99.050781 52.988281 99.328125 C 53.015625 99.457031 53.042969 99.589844 53.070312 99.722656 C 53.070312 99.785156 53.09375 99.851562 53.101562 99.925781 C 53.101562 99.976562 53.109375 100.027344 53.117188 100.078125 C 53.144531 100.355469 53.15625 100.632812 53.148438 100.914062 C 53.148438 101.054688 53.140625 101.191406 53.125 101.324219 C 53.125 101.398438 53.113281 101.476562 53.105469 101.550781 C 53.105469 101.550781 53.105469 101.605469 53.105469 101.621094 C 53.105469 101.632812 53.105469 101.664062 53.09375 101.683594 C 53.050781 101.960938 52.988281 102.234375 52.910156 102.503906 C 52.871094 102.636719 52.828125 102.769531 52.78125 102.902344 L 52.699219 103.105469 L 52.644531 103.230469 C 52.585938 103.347656 52.53125 103.460938 52.46875 103.574219 C 49.6875 100.765625 47.386719 97.609375 45.566406 94.101562 C 43.746094 90.59375 42.488281 86.898438 41.792969 83.007812 Z M 108.191406 100.132812 Z M 108.472656 102.382812 L 108.488281 102.417969 C 108.480469 102.40625 108.476562 102.390625 108.472656 102.378906 Z M 108.992188 103.273438 L 108.925781 103.183594 C 108.878906 103.117188 108.832031 103.046875 108.789062 102.976562 C 108.703125 102.839844 108.621094 102.695312 108.550781 102.550781 L 108.496094 102.429688 C 108.464844 102.347656 108.433594 102.265625 108.402344 102.183594 C 108.351562 102.03125 108.304688 101.875 108.269531 101.714844 C 108.25 101.640625 108.238281 101.566406 108.222656 101.492188 C 108.222656 101.449219 108.207031 101.410156 108.203125 101.367188 C 108.195312 101.324219 108.203125 101.332031 108.203125 101.328125 C 108.183594 101.164062 108.171875 101 108.167969 100.835938 C 108.164062 100.671875 108.167969 100.507812 108.183594 100.347656 C 108.183594 100.304688 108.183594 100.257812 108.199219 100.214844 L 108.199219 100.195312 C 108.222656 100.113281 108.238281 100.027344 108.242188 99.9375 C 108.277344 99.777344 108.316406 99.621094 108.363281 99.464844 C 108.386719 99.394531 108.410156 99.324219 108.4375 99.257812 C 108.464844 99.195312 108.472656 99.175781 108.484375 99.136719 C 108.5 99.09375 108.472656 99.167969 108.472656 99.167969 C 108.480469 99.144531 108.488281 99.121094 108.503906 99.097656 C 108.570312 98.949219 108.644531 98.804688 108.726562 98.664062 C 108.769531 98.597656 108.816406 98.527344 108.859375 98.460938 L 108.929688 98.363281 L 108.980469 98.292969 C 109.199219 98.019531 109.441406 97.765625 109.707031 97.53125 C 109.839844 97.414062 109.980469 97.300781 110.117188 97.191406 L 110.148438 97.167969 L 110.261719 97.082031 L 110.480469 96.925781 C 111.070312 96.515625 111.679688 96.128906 112.261719 95.707031 C 112.757812 95.339844 113.230469 94.941406 113.675781 94.515625 C 114.65625 93.5625 115.578125 92.558594 116.441406 91.5 C 116.746094 91.140625 117.039062 90.769531 117.335938 90.40625 C 115.410156 95.246094 112.628906 99.535156 108.992188 103.269531 Z M 108.992188 103.273438 " fill-opacity="1" fill-rule="nonzero"/></g><path fill="rgb(0%, 23.529053%, 29.40979%)" d="M 79.199219 67.140625 C 79.492188 68.054688 80.058594 68.75 80.898438 69.222656 C 81.847656 69.722656 82.832031 69.8125 83.859375 69.488281 C 84.816406 69.195312 85.675781 68.714844 86.425781 68.050781 C 86.59375 68.230469 86.769531 68.40625 86.949219 68.574219 C 87.710938 69.324219 88.613281 69.8125 89.65625 70.046875 C 90.796875 70.273438 91.957031 70.152344 93.109375 70.074219 C 94.152344 69.984375 95.1875 70.027344 96.21875 70.203125 C 98.210938 70.582031 100.066406 71.515625 101.394531 73.058594 C 102.03125 73.789062 102.503906 74.613281 102.8125 75.535156 C 103.125 76.453125 103.242188 77.394531 103.175781 78.363281 C 103.136719 78.804688 103.046875 79.238281 102.914062 79.660156 C 102.789062 80.074219 102.625 80.46875 102.417969 80.847656 C 101.992188 81.644531 101.449219 82.351562 100.789062 82.96875 C 100.125 83.613281 99.386719 84.160156 98.582031 84.613281 C 97.722656 85.101562 96.820312 85.488281 95.875 85.769531 C 93.640625 86.460938 91.304688 86.714844 88.992188 86.988281 C 86.824219 87.238281 84.648438 87.515625 82.554688 88.15625 C 80.558594 88.773438 78.636719 89.710938 77.121094 91.167969 C 75.539062 92.6875 74.511719 94.683594 72.894531 96.167969 C 72.1875 96.851562 71.363281 97.339844 70.425781 97.636719 C 69.96875 97.773438 69.5 97.820312 69.027344 97.773438 C 68.984375 97.773438 68.945312 97.769531 68.902344 97.761719 L 68.734375 97.730469 C 68.613281 97.703125 68.496094 97.667969 68.378906 97.625 C 68.195312 97.546875 68.03125 97.445312 67.886719 97.308594 C 67.816406 97.246094 67.753906 97.171875 67.703125 97.085938 C 67.652344 97.003906 67.609375 96.921875 67.570312 96.835938 C 67.527344 96.722656 67.492188 96.605469 67.46875 96.488281 C 67.445312 96.394531 67.429688 96.296875 67.421875 96.199219 C 67.402344 95.960938 67.402344 95.71875 67.421875 95.480469 C 67.421875 95.429688 67.433594 95.375 67.4375 95.324219 C 67.4375 95.3125 67.4375 95.253906 67.453125 95.238281 C 67.46875 95.132812 67.492188 95.035156 67.515625 94.925781 C 67.5625 94.71875 67.617188 94.511719 67.6875 94.3125 C 67.722656 94.210938 67.761719 94.105469 67.800781 94.015625 C 67.800781 94.007812 67.800781 93.996094 67.800781 93.988281 L 67.8125 93.957031 C 67.835938 93.90625 67.859375 93.851562 67.882812 93.800781 C 68.066406 93.417969 68.273438 93.050781 68.511719 92.695312 C 68.632812 92.515625 68.757812 92.339844 68.890625 92.167969 C 68.996094 92.019531 69.09375 91.890625 69.25 91.707031 C 69.53125 91.359375 69.824219 91.023438 70.121094 90.679688 C 70.722656 90.003906 71.335938 89.335938 71.894531 88.628906 C 73.15625 87.121094 73.925781 85.394531 74.199219 83.445312 C 74.507812 81.460938 74.417969 79.449219 74.339844 77.449219 C 74.300781 76.449219 74.265625 75.453125 74.285156 74.457031 C 74.296875 73.964844 74.320312 73.476562 74.367188 72.988281 C 74.410156 72.53125 74.476562 72.078125 74.574219 71.632812 C 74.746094 70.734375 75.039062 69.878906 75.460938 69.0625 C 75.523438 68.945312 75.539062 68.820312 75.503906 68.6875 C 75.472656 68.554688 75.394531 68.453125 75.28125 68.382812 C 75.160156 68.316406 75.035156 68.296875 74.902344 68.332031 C 74.769531 68.367188 74.671875 68.445312 74.601562 68.5625 C 73.636719 70.394531 73.335938 72.460938 73.296875 74.515625 C 73.253906 76.566406 73.453125 78.621094 73.425781 80.675781 C 73.433594 81.664062 73.351562 82.648438 73.183594 83.625 C 73.011719 84.578125 72.699219 85.488281 72.25 86.347656 C 71.382812 87.96875 70.074219 89.210938 68.867188 90.628906 C 67.660156 92.046875 66.585938 93.617188 66.421875 95.519531 C 66.332031 96.609375 66.652344 97.789062 67.65625 98.367188 C 68.613281 98.917969 69.859375 98.859375 70.875 98.527344 C 73.058594 97.816406 74.507812 95.980469 75.835938 94.214844 C 76.488281 93.292969 77.222656 92.4375 78.039062 91.652344 C 78.808594 90.972656 79.65625 90.40625 80.589844 89.964844 C 82.4375 89.054688 84.570312 88.578125 86.640625 88.269531 C 89.035156 87.910156 91.457031 87.753906 93.835938 87.289062 C 95.992188 86.863281 98.113281 86.171875 99.933594 84.921875 C 101.578125 83.804688 102.953125 82.300781 103.6875 80.441406 C 104.464844 78.472656 104.289062 76.285156 103.414062 74.382812 C 102.953125 73.414062 102.335938 72.550781 101.566406 71.800781 C 100.792969 71.050781 99.914062 70.457031 98.929688 70.023438 C 97.898438 69.558594 96.820312 69.257812 95.695312 69.121094 C 94.574219 68.976562 93.46875 69.050781 92.34375 69.132812 C 91.757812 69.183594 91.167969 69.195312 90.578125 69.167969 C 90.3125 69.152344 90.050781 69.117188 89.789062 69.058594 C 89.664062 69.03125 89.542969 69 89.417969 68.960938 L 89.210938 68.886719 L 89.074219 68.832031 C 88.335938 68.480469 87.699219 67.992188 87.164062 67.375 C 87.792969 66.761719 88.382812 66.101562 88.988281 65.484375 C 89.675781 64.730469 90.46875 64.117188 91.371094 63.636719 C 91.488281 63.566406 91.566406 63.464844 91.601562 63.332031 C 91.632812 63.203125 91.617188 63.078125 91.550781 62.957031 C 91.480469 62.839844 91.378906 62.765625 91.246094 62.730469 C 91.113281 62.695312 90.988281 62.710938 90.867188 62.777344 C 89.078125 63.667969 87.90625 65.300781 86.503906 66.660156 C 85.980469 66.023438 85.394531 65.445312 84.75 64.925781 C 84 64.375 83.164062 64.042969 82.238281 63.933594 C 81.324219 63.792969 80.519531 64.035156 79.828125 64.652344 C 79.496094 64.976562 79.277344 65.359375 79.164062 65.808594 C 79.050781 66.253906 79.0625 66.699219 79.199219 67.140625 Z M 80.554688 67.628906 C 80.515625 67.578125 80.546875 67.621094 80.554688 67.628906 Z M 80.175781 65.847656 Z M 80.089844 66.179688 C 80.089844 66.210938 80.089844 66.210938 80.089844 66.179688 Z M 80.089844 66.234375 C 80.089844 66.214844 80.089844 66.195312 80.089844 66.175781 C 80.105469 66.089844 80.125 66.007812 80.152344 65.921875 C 80.152344 65.898438 80.171875 65.875 80.179688 65.847656 C 80.1875 65.820312 80.222656 65.757812 80.246094 65.714844 L 80.320312 65.59375 L 80.367188 65.527344 C 80.425781 65.453125 80.488281 65.386719 80.558594 65.324219 C 80.578125 65.300781 80.605469 65.28125 80.632812 65.257812 L 80.6875 65.214844 C 80.769531 65.160156 80.855469 65.113281 80.945312 65.070312 C 80.960938 65.070312 81 65.046875 81.007812 65.042969 L 81.097656 65.011719 C 81.191406 64.980469 81.289062 64.953125 81.386719 64.933594 L 81.484375 64.917969 L 81.554688 64.917969 C 81.660156 64.910156 81.765625 64.90625 81.871094 64.910156 C 81.960938 64.910156 82.050781 64.910156 82.140625 64.921875 L 82.222656 64.921875 L 82.378906 64.949219 C 82.582031 64.988281 82.78125 65.042969 82.976562 65.109375 C 83.0625 65.136719 83.144531 65.167969 83.226562 65.203125 L 83.328125 65.246094 L 83.484375 65.316406 C 83.671875 65.410156 83.851562 65.515625 84.027344 65.632812 C 84.101562 65.679688 84.171875 65.730469 84.246094 65.785156 L 84.324219 65.847656 L 84.449219 65.957031 C 84.625 66.117188 84.800781 66.285156 84.964844 66.457031 C 85.238281 66.738281 85.5 67.027344 85.757812 67.320312 C 85.140625 67.855469 84.449219 68.25 83.675781 68.507812 C 83.214844 68.652344 82.746094 68.703125 82.265625 68.664062 L 82.210938 68.664062 L 82.074219 68.636719 C 81.964844 68.613281 81.859375 68.582031 81.753906 68.542969 L 81.675781 68.511719 L 81.570312 68.464844 C 81.46875 68.414062 81.371094 68.359375 81.277344 68.300781 C 81.199219 68.253906 81.125 68.203125 81.054688 68.148438 C 81.039062 68.132812 80.984375 68.089844 80.976562 68.082031 C 80.929688 68.042969 80.890625 68.007812 80.851562 67.96875 C 80.777344 67.902344 80.710938 67.835938 80.644531 67.761719 C 80.609375 67.722656 80.578125 67.683594 80.542969 67.640625 L 80.488281 67.566406 C 80.4375 67.488281 80.386719 67.410156 80.339844 67.332031 C 80.316406 67.285156 80.289062 67.238281 80.265625 67.1875 C 80.265625 67.171875 80.234375 67.121094 80.222656 67.101562 C 80.15625 66.933594 80.109375 66.765625 80.078125 66.585938 C 80.078125 66.570312 80.078125 66.542969 80.078125 66.523438 C 80.078125 66.503906 80.078125 66.4375 80.078125 66.394531 C 80.078125 66.351562 80.082031 66.28125 80.085938 66.234375 Z M 80.089844 66.234375 " fill-opacity="1" fill-rule="nonzero"/><path fill="rgb(0%, 23.529053%, 29.40979%)" d="M 97.933594 107.140625 C 98.0625 107.140625 98.191406 107.140625 98.320312 107.140625 C 98.425781 107.136719 98.53125 107.140625 98.636719 107.160156 L 98.667969 107.160156 L 98.734375 107.171875 C 98.800781 107.1875 98.867188 107.203125 98.941406 107.222656 C 98.992188 107.234375 99.046875 107.253906 99.097656 107.273438 L 99.117188 107.273438 L 99.160156 107.289062 C 99.207031 107.3125 99.253906 107.339844 99.300781 107.367188 L 99.367188 107.410156 C 99.40625 107.441406 99.441406 107.480469 99.476562 107.515625 L 99.519531 107.5625 C 99.546875 107.601562 99.574219 107.640625 99.59375 107.683594 C 99.617188 107.726562 99.621094 107.730469 99.628906 107.753906 C 99.632812 107.757812 99.632812 107.761719 99.628906 107.765625 C 99.671875 107.898438 99.75 107.996094 99.871094 108.0625 C 99.988281 108.132812 100.113281 108.148438 100.246094 108.113281 C 100.378906 108.074219 100.480469 107.996094 100.546875 107.878906 C 100.617188 107.757812 100.632812 107.632812 100.59375 107.496094 C 100.382812 106.914062 99.984375 106.515625 99.398438 106.308594 C 98.882812 106.128906 98.355469 106.070312 97.816406 106.128906 C 97.265625 106.195312 96.726562 106.304688 96.191406 106.449219 C 96.0625 106.476562 95.933594 106.507812 95.800781 106.527344 C 95.738281 106.542969 95.671875 106.554688 95.605469 106.5625 L 95.527344 106.574219 L 95.460938 106.574219 C 95.199219 106.617188 94.933594 106.628906 94.664062 106.621094 L 94.578125 106.621094 C 94.519531 106.609375 94.460938 106.59375 94.40625 106.582031 C 94.347656 106.566406 94.292969 106.546875 94.238281 106.527344 L 94.207031 106.515625 L 94.179688 106.515625 L 94.136719 106.488281 C 94.085938 106.460938 94.035156 106.429688 93.988281 106.398438 L 93.933594 106.355469 C 93.890625 106.3125 93.851562 106.269531 93.8125 106.226562 L 93.742188 106.117188 C 93.71875 106.078125 93.699219 106.039062 93.675781 105.996094 L 93.675781 105.984375 C 93.648438 105.910156 93.621094 105.832031 93.601562 105.753906 C 93.558594 105.601562 93.527344 105.441406 93.5 105.28125 C 93.457031 104.972656 93.386719 104.667969 93.292969 104.371094 C 93.09375 103.84375 92.796875 103.382812 92.402344 102.980469 C 92.011719 102.578125 91.550781 102.269531 91.03125 102.058594 C 89.933594 101.585938 88.804688 101.488281 87.644531 101.769531 C 86.328125 102.089844 85.164062 102.84375 84.148438 103.734375 C 83.175781 104.59375 82.363281 105.597656 81.503906 106.566406 C 81.082031 107.046875 80.628906 107.5 80.148438 107.925781 L 79.976562 108.070312 L 79.882812 108.144531 L 79.863281 108.15625 C 79.730469 108.253906 79.59375 108.363281 79.449219 108.441406 C 79.179688 108.621094 78.894531 108.773438 78.597656 108.902344 L 78.582031 108.902344 L 78.554688 108.914062 L 78.433594 108.957031 L 78.167969 109.050781 C 78 109.105469 77.828125 109.152344 77.652344 109.195312 C 77.296875 109.285156 76.933594 109.351562 76.570312 109.402344 C 75.867188 109.496094 75.167969 109.628906 74.476562 109.796875 C 73.320312 110.109375 72.136719 110.746094 71.511719 111.808594 C 71.355469 112.074219 71.242188 112.355469 71.171875 112.65625 C 71.136719 112.789062 71.152344 112.914062 71.21875 113.03125 C 71.285156 113.152344 71.386719 113.230469 71.519531 113.265625 C 71.652344 113.304688 71.777344 113.289062 71.898438 113.21875 C 72.015625 113.152344 72.09375 113.050781 72.132812 112.921875 C 72.160156 112.804688 72.195312 112.6875 72.238281 112.574219 C 72.238281 112.585938 72.28125 112.46875 72.292969 112.445312 C 72.332031 112.375 72.371094 112.308594 72.410156 112.242188 C 72.445312 112.183594 72.484375 112.132812 72.519531 112.078125 L 72.585938 112 C 72.675781 111.894531 72.773438 111.796875 72.875 111.703125 C 72.925781 111.65625 72.976562 111.613281 73.027344 111.570312 L 73.070312 111.539062 L 73.121094 111.5 C 73.238281 111.417969 73.359375 111.339844 73.484375 111.269531 C 73.605469 111.199219 73.726562 111.136719 73.847656 111.078125 L 74.019531 111 L 74.054688 110.984375 L 74.191406 110.933594 C 75.457031 110.457031 76.839844 110.449219 78.136719 110.089844 C 78.804688 109.910156 79.429688 109.628906 80.007812 109.25 C 80.550781 108.882812 81.050781 108.460938 81.507812 107.992188 C 82.394531 107.101562 83.152344 106.09375 84.039062 105.191406 C 84.265625 104.957031 84.496094 104.734375 84.738281 104.515625 C 84.847656 104.417969 84.960938 104.320312 85.070312 104.226562 L 85.25 104.078125 L 85.339844 104.007812 L 85.363281 103.988281 L 85.386719 103.976562 C 85.886719 103.589844 86.425781 103.265625 87.003906 103.003906 L 87.058594 102.984375 L 87.132812 102.953125 L 87.339844 102.875 C 87.488281 102.820312 87.640625 102.777344 87.796875 102.734375 C 87.949219 102.695312 88.0625 102.667969 88.207031 102.644531 C 88.234375 102.644531 88.433594 102.59375 88.296875 102.628906 C 88.367188 102.617188 88.441406 102.609375 88.519531 102.609375 C 88.769531 102.589844 89.019531 102.589844 89.269531 102.609375 L 89.457031 102.625 L 89.472656 102.625 L 89.546875 102.636719 C 89.6875 102.660156 89.820312 102.6875 89.960938 102.722656 C 90.097656 102.757812 90.199219 102.789062 90.316406 102.828125 L 90.492188 102.894531 L 90.5625 102.917969 L 90.574219 102.917969 L 90.597656 102.929688 C 90.824219 103.035156 91.046875 103.15625 91.253906 103.292969 L 91.371094 103.378906 L 91.46875 103.457031 C 91.570312 103.542969 91.667969 103.632812 91.757812 103.726562 C 91.796875 103.769531 91.835938 103.816406 91.875 103.859375 L 91.921875 103.914062 C 91.988281 104.011719 92.058594 104.105469 92.117188 104.207031 C 92.167969 104.304688 92.21875 104.398438 92.261719 104.5 C 92.261719 104.527344 92.296875 104.59375 92.304688 104.613281 C 92.328125 104.683594 92.351562 104.753906 92.371094 104.820312 C 92.453125 105.132812 92.488281 105.457031 92.554688 105.773438 C 92.667969 106.441406 93.007812 106.949219 93.585938 107.304688 C 94.585938 107.867188 95.847656 107.597656 96.898438 107.316406 C 97.140625 107.242188 97.390625 107.1875 97.644531 107.160156 C 97.503906 107.171875 97.699219 107.160156 97.734375 107.160156 Z M 79.882812 108.085938 Z M 93.636719 105.921875 C 93.625 105.902344 93.636719 105.910156 93.636719 105.921875 Z M 94.179688 106.488281 L 94.222656 106.507812 C 94.222656 106.507812 94.199219 106.5 94.179688 106.488281 Z M 94.605469 106.609375 L 94.644531 106.609375 C 94.632812 106.613281 94.617188 106.617188 94.605469 106.621094 Z M 94.605469 106.609375 " fill-opacity="1" fill-rule="nonzero"/><path fill="rgb(0%, 23.529053%, 29.40979%)" d="M 50.714844 89.953125 L 50.699219 89.976562 C 50.679688 89.988281 50.65625 90.046875 50.714844 89.953125 Z M 50.714844 89.953125 " fill-opacity="1" fill-rule="nonzero"/><path fill="rgb(0%, 23.529053%, 29.40979%)" d="M 51.054688 87.964844 C 50.96875 88.058594 51.03125 87.992188 51.054688 87.964844 Z M 51.054688 87.964844 " fill-opacity="1" fill-rule="nonzero"/><path fill="rgb(0%, 23.529053%, 29.40979%)" d="M 49.710938 91.949219 C 49.738281 91.835938 49.714844 91.910156 49.710938 91.949219 Z M 49.710938 91.949219 " fill-opacity="1" fill-rule="nonzero"/><path fill="rgb(0%, 23.529053%, 29.40979%)" d="M 85.066406 35.636719 L 85.078125 35.601562 Z M 85.066406 35.636719 " fill-opacity="1" fill-rule="nonzero"/><g clip-path="url(#id8)"><path fill="rgb(0%, 23.529053%, 29.40979%)" d="M 87.683594 52.210938 C 89.175781 54.632812 90.757812 57 92.242188 59.425781 C 92.453125 59.773438 92.664062 60.121094 92.875 60.472656 C 92.921875 60.546875 92.980469 60.605469 93.058594 60.648438 C 93.136719 60.691406 93.21875 60.710938 93.304688 60.710938 C 93.394531 60.710938 93.476562 60.691406 93.550781 60.648438 C 93.628906 60.605469 93.6875 60.546875 93.734375 60.472656 C 95.203125 58.324219 96.535156 56.097656 97.734375 53.785156 C 98.304688 52.710938 98.867188 51.628906 99.4375 50.558594 C 100.03125 49.445312 100.609375 48.335938 101.082031 47.171875 C 102.050781 44.824219 102.644531 42.382812 102.859375 39.855469 C 102.96875 38.648438 102.96875 37.445312 102.859375 36.242188 C 102.773438 35.222656 102.515625 34.25 102.082031 33.324219 C 101.640625 32.429688 101.011719 31.699219 100.1875 31.136719 C 99.222656 30.492188 98.160156 30.117188 97.003906 30.007812 C 95.820312 29.875 94.707031 30.085938 93.65625 30.636719 C 93.144531 30.925781 92.675781 31.265625 92.242188 31.664062 C 91.84375 32.023438 91.472656 32.414062 91.140625 32.835938 C 89.742188 34.601562 88.949219 36.839844 89.226562 39.097656 C 89.492188 41.261719 90.640625 43.519531 92.660156 44.53125 C 93.609375 45.007812 94.78125 45.25 95.796875 44.84375 C 96.964844 44.378906 97.585938 43.289062 97.933594 42.136719 C 98.28125 40.984375 98.40625 39.628906 97.992188 38.441406 C 97.804688 37.886719 97.503906 37.394531 97.097656 36.972656 C 96.6875 36.554688 96.207031 36.242188 95.652344 36.039062 C 95.125 35.851562 94.589844 35.816406 94.042969 35.929688 C 93.910156 35.96875 93.808594 36.046875 93.742188 36.167969 C 93.671875 36.285156 93.660156 36.414062 93.695312 36.546875 C 93.734375 36.679688 93.8125 36.777344 93.933594 36.84375 C 94.054688 36.914062 94.179688 36.929688 94.3125 36.894531 C 94.332031 36.894531 94.441406 36.878906 94.4375 36.875 L 94.582031 36.875 C 94.691406 36.875 94.796875 36.878906 94.90625 36.890625 L 95.027344 36.910156 C 95.085938 36.921875 95.144531 36.933594 95.199219 36.949219 L 95.347656 37 L 95.480469 37.046875 C 95.691406 37.140625 95.886719 37.253906 96.070312 37.390625 L 96.167969 37.46875 L 96.285156 37.578125 C 96.382812 37.667969 96.472656 37.761719 96.554688 37.863281 L 96.609375 37.929688 L 96.621094 37.941406 C 96.652344 37.988281 96.683594 38.03125 96.710938 38.074219 C 96.785156 38.183594 96.847656 38.296875 96.90625 38.414062 C 96.953125 38.503906 96.996094 38.597656 97.027344 38.695312 C 97.078125 38.835938 97.121094 38.980469 97.15625 39.128906 C 97.21875 39.378906 97.253906 39.632812 97.257812 39.890625 C 97.265625 40.175781 97.253906 40.460938 97.222656 40.746094 C 97.222656 40.773438 97.222656 40.800781 97.222656 40.828125 C 97.222656 40.835938 97.222656 40.84375 97.222656 40.851562 C 97.210938 40.921875 97.199219 40.992188 97.183594 41.054688 C 97.160156 41.195312 97.128906 41.335938 97.09375 41.476562 C 97.027344 41.75 96.949219 42.015625 96.851562 42.277344 C 96.828125 42.339844 96.804688 42.402344 96.777344 42.464844 L 96.777344 42.476562 L 96.722656 42.5625 C 96.660156 42.691406 96.589844 42.816406 96.515625 42.941406 C 96.402344 43.152344 96.257812 43.34375 96.082031 43.507812 C 96.035156 43.550781 95.988281 43.59375 95.933594 43.636719 L 95.921875 43.636719 L 95.867188 43.679688 C 95.761719 43.75 95.65625 43.8125 95.542969 43.867188 L 95.496094 43.886719 L 95.484375 43.886719 L 95.320312 43.945312 C 95.207031 43.976562 95.089844 44.003906 94.96875 44.023438 L 94.902344 44.023438 C 94.84375 44.023438 94.789062 44.023438 94.726562 44.023438 C 94.605469 44.023438 94.480469 44.019531 94.355469 44.007812 L 94.253906 43.996094 L 94.113281 43.96875 C 93.992188 43.949219 93.875 43.917969 93.761719 43.882812 C 93.644531 43.851562 93.527344 43.804688 93.414062 43.761719 L 93.390625 43.792969 L 93.332031 43.765625 C 93.273438 43.742188 93.21875 43.714844 93.164062 43.6875 C 92.941406 43.578125 92.730469 43.449219 92.527344 43.304688 L 92.425781 43.226562 L 92.304688 43.128906 C 92.207031 43.046875 92.117188 42.964844 92.03125 42.878906 C 91.851562 42.699219 91.683594 42.511719 91.527344 42.3125 L 91.457031 42.21875 L 91.34375 42.0625 C 91.273438 41.957031 91.207031 41.859375 91.140625 41.742188 C 91.007812 41.523438 90.886719 41.300781 90.78125 41.066406 L 90.710938 40.914062 L 90.667969 40.8125 C 90.621094 40.6875 90.574219 40.558594 90.53125 40.429688 C 90.449219 40.1875 90.378906 39.941406 90.324219 39.691406 C 90.300781 39.574219 90.277344 39.457031 90.257812 39.339844 C 90.246094 39.273438 90.238281 39.210938 90.226562 39.148438 C 90.226562 39.105469 90.226562 39.0625 90.210938 39.023438 C 90.183594 38.769531 90.167969 38.511719 90.167969 38.253906 C 90.164062 38 90.175781 37.742188 90.203125 37.488281 L 90.21875 37.320312 L 90.21875 37.304688 L 90.234375 37.214844 C 90.253906 37.085938 90.277344 36.960938 90.300781 36.835938 C 90.355469 36.578125 90.421875 36.328125 90.496094 36.082031 C 90.535156 35.96875 90.574219 35.851562 90.613281 35.738281 C 90.636719 35.679688 90.660156 35.617188 90.683594 35.558594 C 90.695312 35.527344 90.707031 35.496094 90.71875 35.46875 L 90.71875 35.429688 C 90.925781 34.953125 91.171875 34.5 91.460938 34.066406 C 91.527344 33.964844 91.597656 33.859375 91.664062 33.765625 C 91.703125 33.714844 91.742188 33.660156 91.78125 33.609375 L 91.804688 33.578125 L 91.871094 33.5 C 92.03125 33.292969 92.203125 33.101562 92.382812 32.914062 C 92.566406 32.722656 92.738281 32.554688 92.925781 32.386719 C 93.023438 32.300781 93.132812 32.214844 93.222656 32.132812 L 93.375 32.011719 L 93.402344 31.992188 L 93.46875 31.941406 C 93.679688 31.78125 93.902344 31.636719 94.136719 31.511719 C 94.25 31.449219 94.363281 31.394531 94.476562 31.34375 C 94.496094 31.34375 94.566406 31.308594 94.578125 31.304688 L 94.785156 31.230469 C 95.03125 31.148438 95.285156 31.085938 95.542969 31.039062 L 95.675781 31.023438 C 95.730469 31.011719 95.789062 31.007812 95.847656 31.003906 C 95.976562 30.992188 96.109375 30.984375 96.238281 30.984375 C 97.273438 30.964844 98.246094 31.195312 99.160156 31.679688 C 99.367188 31.792969 99.566406 31.914062 99.757812 32.050781 L 99.871094 32.136719 L 99.933594 32.191406 C 100.027344 32.265625 100.117188 32.34375 100.199219 32.425781 C 100.351562 32.570312 100.496094 32.722656 100.628906 32.886719 C 100.644531 32.910156 100.660156 32.925781 100.675781 32.949219 C 100.703125 32.988281 100.734375 33.023438 100.757812 33.058594 C 100.824219 33.15625 100.890625 33.25 100.949219 33.347656 C 101.0625 33.53125 101.167969 33.722656 101.257812 33.921875 C 101.28125 33.96875 101.300781 34.019531 101.328125 34.070312 C 101.335938 34.085938 101.339844 34.101562 101.347656 34.121094 C 101.394531 34.230469 101.433594 34.339844 101.472656 34.449219 C 101.617188 34.886719 101.726562 35.328125 101.800781 35.78125 C 101.800781 35.835938 101.816406 35.886719 101.824219 35.9375 C 101.824219 35.957031 101.824219 35.972656 101.824219 35.992188 C 101.824219 36.003906 101.824219 36.015625 101.824219 36.023438 C 101.835938 36.144531 101.851562 36.261719 101.863281 36.382812 C 101.886719 36.648438 101.902344 36.917969 101.910156 37.183594 C 101.933594 37.78125 101.933594 38.375 101.910156 38.96875 C 101.863281 40.132812 101.722656 41.289062 101.488281 42.429688 C 101.25 43.601562 100.925781 44.746094 100.519531 45.871094 C 100.125 46.964844 99.652344 48.023438 99.105469 49.046875 C 98.574219 50.054688 98.035156 51.058594 97.503906 52.066406 C 96.371094 54.226562 95.214844 56.378906 93.898438 58.433594 C 93.707031 58.726562 93.511719 59.023438 93.316406 59.316406 C 91.941406 57.058594 90.492188 54.847656 89.085938 52.609375 C 88.449219 51.597656 87.824219 50.574219 87.234375 49.53125 C 86.960938 49.039062 86.695312 48.535156 86.445312 48.03125 C 86.324219 47.785156 86.207031 47.539062 86.09375 47.289062 L 85.945312 46.957031 L 85.863281 46.773438 L 85.847656 46.734375 C 85.847656 46.722656 85.808594 46.640625 85.804688 46.632812 C 85.398438 45.644531 85.070312 44.628906 84.824219 43.589844 C 84.695312 43.054688 84.59375 42.511719 84.511719 41.96875 L 84.488281 41.796875 C 84.488281 41.796875 84.472656 41.683594 84.46875 41.660156 C 84.449219 41.511719 84.433594 41.359375 84.417969 41.210938 C 84.386719 40.921875 84.363281 40.628906 84.347656 40.335938 C 84.304688 39.742188 84.304688 39.144531 84.347656 38.546875 C 84.347656 38.410156 84.371094 38.269531 84.386719 38.136719 C 84.386719 38.109375 84.40625 38.011719 84.386719 38.117188 L 84.402344 38.027344 C 84.414062 37.941406 84.425781 37.855469 84.445312 37.769531 C 84.496094 37.480469 84.558594 37.191406 84.636719 36.910156 C 84.714844 36.625 84.804688 36.34375 84.90625 36.070312 C 84.953125 35.929688 85.007812 35.796875 85.066406 35.660156 C 85.070312 35.648438 85.074219 35.636719 85.078125 35.625 C 85.089844 35.605469 85.097656 35.582031 85.109375 35.5625 C 85.140625 35.488281 85.175781 35.414062 85.207031 35.339844 C 85.460938 34.804688 85.753906 34.292969 86.085938 33.804688 C 86.171875 33.683594 86.253906 33.5625 86.34375 33.445312 L 86.398438 33.375 L 86.441406 33.316406 C 86.460938 33.292969 86.484375 33.261719 86.484375 33.261719 L 86.566406 33.160156 C 86.753906 32.929688 86.949219 32.710938 87.152344 32.496094 C 87.359375 32.289062 87.5625 32.085938 87.789062 31.878906 C 87.898438 31.78125 88.011719 31.6875 88.125 31.59375 L 88.339844 31.421875 L 88.40625 31.367188 C 88.878906 31.015625 89.378906 30.703125 89.902344 30.433594 C 90.035156 30.367188 90.167969 30.300781 90.300781 30.238281 L 90.507812 30.152344 L 90.53125 30.152344 L 90.632812 30.109375 C 90.90625 30 91.183594 29.90625 91.464844 29.820312 C 91.75 29.730469 92.039062 29.664062 92.328125 29.613281 C 92.460938 29.574219 92.5625 29.496094 92.628906 29.375 C 92.695312 29.257812 92.710938 29.128906 92.675781 28.996094 C 92.636719 28.867188 92.558594 28.765625 92.4375 28.699219 C 92.316406 28.632812 92.191406 28.617188 92.058594 28.648438 C 90.84375 28.910156 89.707031 29.363281 88.648438 30.011719 C 87.589844 30.664062 86.667969 31.472656 85.890625 32.4375 C 84.308594 34.359375 83.324219 36.777344 83.316406 39.28125 C 83.316406 41.617188 83.71875 43.878906 84.527344 46.070312 C 85.332031 48.214844 86.472656 50.246094 87.683594 52.210938 Z M 96.59375 37.910156 Z M 96.59375 37.910156 " fill-opacity="1" fill-rule="nonzero"/></g></svg>