<svg xmlns="http://www.w3.org/2000/svg" xmlns:xlink="http://www.w3.org/1999/xlink" width="300" zoomAndPan="magnify" viewBox="0 0 224.87999 225" height="300" preserveAspectRatio="xMidYMid meet" version="1.0"><defs><filter x="0%" y="0%" width="100%" xlink:type="simple" xlink:actuate="onLoad" height="100%" id="id1" xlink:show="other"><feColorMatrix values="0 0 0 0 1 0 0 0 0 1 0 0 0 0 1 0 0 0 1 0" color-interpolation-filters="sRGB"/></filter><mask id="id2"><g filter="url(#id1)"><rect x="-22.487999" width="269.855988" fill="rgb(0%, 0%, 0%)" y="-22.5" height="270" fill-opacity="0.2471"/></g></mask><clipPath id="id3"><path d="M 4 11 L 53 11 L 53 50 L 4 50 Z M 4 11 " clip-rule="nonzero"/></clipPath><clipPath id="id4"><path d="M 61.925781 40.910156 L 11.980469 61.363281 L -5.914062 17.664062 L 44.03125 -2.792969 Z M 61.925781 40.910156 " clip-rule="nonzero"/></clipPath><clipPath id="id5"><path d="M 61.925781 40.910156 L 11.980469 61.363281 L -5.914062 17.664062 L 44.03125 -2.792969 Z M 61.925781 40.910156 " clip-rule="nonzero"/></clipPath><clipPath id="id6"><rect x="0" width="56" y="0" height="57"/></clipPath><clipPath id="id7"><path d="M 83 85 L 142.664062 85 L 142.664062 144.777344 L 83 144.777344 Z M 83 85 " clip-rule="nonzero"/></clipPath><clipPath id="id8"><path d="M 114 80.3125 L 130 80.3125 L 130 104 L 114 104 Z M 114 80.3125 " clip-rule="nonzero"/></clipPath></defs><g mask="url(#id2)"><g transform="matrix(1, 0, 0, 1, 81, 87)"><g clip-path="url(#id6)"><g clip-path="url(#id3)"><g clip-path="url(#id4)"><g clip-path="url(#id5)"><path fill="rgb(23.919678%, 47.059631%, 53.729248%)" d="M 22.441406 47.820312 C 13.292969 44.484375 -3.953125 22.363281 9.117188 13.730469 C 17.953125 7.886719 19.378906 17.265625 31.519531 24.625 C 35.542969 27.058594 55.199219 24.574219 52.328125 37.074219 C 50.625 44.480469 34.40625 52.179688 22.441406 47.820312 Z M 22.441406 47.820312 " fill-opacity="1" fill-rule="nonzero"/></g></g></g></g></g></g><g clip-path="url(#id7)"><path fill="rgb(0%, 23.529053%, 29.40979%)" d="M 130.648438 91.277344 C 130.566406 91.210938 130.476562 91.1875 130.375 91.199219 C 130.273438 91.214844 130.191406 91.261719 130.132812 91.34375 C 130.070312 91.425781 130.046875 91.519531 130.0625 91.621094 C 130.082031 91.722656 130.128906 91.804688 130.214844 91.863281 C 137.460938 97.28125 141.675781 105.621094 141.785156 114.738281 C 141.820312 117.761719 141.398438 120.722656 140.519531 123.613281 C 139.960938 124.328125 139.40625 125.046875 138.832031 125.746094 C 138.183594 126.554688 137.496094 127.328125 136.769531 128.0625 C 136.601562 128.226562 136.433594 128.382812 136.261719 128.535156 C 136.179688 128.609375 136.097656 128.683594 136.011719 128.753906 L 135.890625 128.851562 L 135.839844 128.890625 C 135.878906 128.859375 135.832031 128.890625 135.820312 128.90625 C 135.40625 129.222656 134.957031 129.496094 134.53125 129.796875 C 134.0625 130.105469 133.644531 130.46875 133.269531 130.886719 C 132.910156 131.308594 132.65625 131.785156 132.511719 132.324219 C 132.222656 133.402344 132.375 134.417969 132.960938 135.371094 C 133.035156 135.484375 133.121094 135.59375 133.203125 135.699219 C 131.878906 137.023438 130.4375 138.203125 128.882812 139.238281 C 127.324219 140.277344 125.683594 141.152344 123.957031 141.867188 C 122.230469 142.582031 120.453125 143.117188 118.621094 143.480469 C 116.789062 143.84375 114.9375 144.027344 113.070312 144.023438 L 113.023438 144.023438 C 111.175781 144.03125 109.347656 143.859375 107.535156 143.511719 C 105.722656 143.164062 103.957031 142.640625 102.246094 141.949219 C 100.53125 141.257812 98.902344 140.40625 97.351562 139.394531 C 95.804688 138.386719 94.367188 137.238281 93.039062 135.945312 C 93.480469 135.167969 93.710938 134.332031 93.730469 133.4375 C 93.75 132.542969 93.554688 131.695312 93.144531 130.898438 C 92.738281 130.125 92.105469 129.542969 91.503906 128.929688 C 91.355469 128.78125 91.21875 128.628906 91.085938 128.476562 L 90.992188 128.367188 L 90.984375 128.355469 C 90.972656 128.339844 90.960938 128.320312 90.949219 128.304688 C 90.890625 128.226562 90.832031 128.144531 90.78125 128.058594 C 90.734375 127.980469 90.6875 127.902344 90.648438 127.816406 L 90.617188 127.746094 C 90.597656 127.699219 90.582031 127.652344 90.566406 127.605469 C 90.535156 127.519531 90.515625 127.429688 90.496094 127.335938 C 90.496094 127.320312 90.488281 127.296875 90.488281 127.273438 L 90.488281 127.257812 C 90.488281 127.207031 90.488281 127.15625 90.476562 127.105469 C 90.476562 127.027344 90.476562 126.953125 90.488281 126.871094 C 90.488281 126.871094 90.488281 126.878906 90.488281 126.882812 C 90.492188 126.863281 90.496094 126.839844 90.5 126.820312 C 90.5 126.78125 90.515625 126.738281 90.523438 126.699219 C 90.542969 126.621094 90.5625 126.550781 90.589844 126.476562 C 90.601562 126.4375 90.617188 126.398438 90.632812 126.359375 L 90.652344 126.308594 C 90.796875 126.003906 90.972656 125.71875 91.175781 125.449219 C 91.1875 125.429688 91.203125 125.414062 91.214844 125.394531 L 91.289062 125.304688 L 91.460938 125.089844 C 91.574219 124.953125 91.683594 124.816406 91.792969 124.679688 C 92.03125 124.398438 92.246094 124.101562 92.441406 123.789062 C 92.824219 123.148438 93.019531 122.382812 92.78125 121.652344 C 92.503906 120.792969 91.761719 120.175781 90.972656 119.792969 C 90.042969 119.359375 89.0625 119.117188 88.035156 119.070312 C 86.992188 119.003906 85.972656 119.125 84.972656 119.429688 C 84.839844 119.46875 84.714844 119.511719 84.585938 119.554688 C 84.371094 118.144531 84.261719 116.722656 84.25 115.296875 C 84.222656 111.902344 84.773438 108.605469 85.902344 105.402344 C 86.0625 104.957031 86.320312 104.574219 86.667969 104.25 C 87.015625 103.929688 87.417969 103.707031 87.875 103.585938 C 89.09375 103.242188 90.011719 103.238281 90.453125 103.585938 C 90.695312 103.769531 90.816406 104.074219 90.816406 104.511719 C 90.816406 105.945312 90.160156 107.320312 89.464844 108.773438 C 88.769531 110.230469 88.046875 111.753906 88.046875 113.351562 C 88.046875 114.222656 88.132812 115.144531 88.753906 115.40625 C 89.609375 115.761719 90.804688 114.757812 94.191406 111.347656 C 96.15625 109.375 98.050781 108.933594 99.574219 108.574219 C 101.316406 108.167969 102.820312 107.820312 103.332031 105.386719 C 103.796875 103.179688 103 101.054688 102.296875 99.179688 C 101.621094 97.371094 100.980469 95.671875 101.558594 94.203125 C 102.191406 92.585938 102.890625 91.910156 103.492188 91.464844 C 103.804688 91.238281 104.074219 90.96875 104.300781 90.652344 C 104.527344 90.339844 104.699219 90 104.816406 89.628906 C 104.933594 89.261719 104.992188 88.882812 104.992188 88.496094 C 104.988281 88.109375 104.925781 87.730469 104.804688 87.363281 C 107.277344 86.625 109.804688 86.230469 112.382812 86.175781 L 112.390625 86.175781 C 112.691406 86.175781 112.976562 86.164062 113.269531 86.175781 C 113.367188 86.175781 113.453125 86.136719 113.523438 86.066406 C 113.597656 85.996094 113.632812 85.910156 113.632812 85.808594 C 113.632812 85.707031 113.597656 85.621094 113.523438 85.550781 C 113.453125 85.480469 113.367188 85.445312 113.269531 85.445312 L 112.949219 85.445312 C 110.929688 85.445312 108.933594 85.652344 106.957031 86.066406 C 104.980469 86.480469 103.066406 87.089844 101.214844 87.902344 C 99.363281 88.710938 97.613281 89.699219 95.964844 90.871094 C 94.316406 92.039062 92.800781 93.367188 91.421875 94.851562 C 91.351562 94.921875 91.320312 95.011719 91.324219 95.113281 C 91.324219 95.214844 91.363281 95.300781 91.4375 95.367188 C 91.511719 95.4375 91.597656 95.472656 91.699219 95.464844 C 91.800781 95.460938 91.886719 95.421875 91.953125 95.347656 C 93.617188 93.554688 95.476562 92 97.535156 90.683594 C 99.59375 89.363281 101.78125 88.328125 104.101562 87.570312 C 104.203125 87.867188 104.253906 88.171875 104.253906 88.484375 C 104.257812 88.792969 104.210938 89.097656 104.117188 89.394531 C 104.023438 89.691406 103.886719 89.96875 103.703125 90.21875 C 103.519531 90.472656 103.304688 90.6875 103.050781 90.871094 C 102.371094 91.378906 101.578125 92.140625 100.875 93.929688 C 100.195312 95.65625 100.882812 97.492188 101.609375 99.429688 C 102.3125 101.296875 103.035156 103.226562 102.617188 105.226562 C 102.199219 107.199219 101.148438 107.445312 99.40625 107.855469 C 97.789062 108.234375 95.78125 108.703125 93.675781 110.824219 C 92.039062 112.464844 89.570312 114.945312 89.023438 114.722656 C 88.980469 114.703125 88.765625 114.554688 88.765625 113.34375 C 88.765625 111.910156 89.421875 110.539062 90.117188 109.082031 C 90.8125 107.625 91.535156 106.101562 91.535156 104.503906 C 91.535156 103.832031 91.316406 103.324219 90.886719 102.996094 C 90.238281 102.503906 89.160156 102.464844 87.671875 102.882812 C 87.105469 103.039062 86.601562 103.320312 86.171875 103.722656 C 85.738281 104.125 85.421875 104.605469 85.21875 105.164062 C 85.023438 105.722656 84.839844 106.285156 84.675781 106.851562 C 84.511719 107.421875 84.363281 107.992188 84.234375 108.570312 C 84.105469 109.144531 83.992188 109.726562 83.894531 110.308594 C 83.800781 110.894531 83.722656 111.480469 83.660156 112.066406 C 83.601562 112.65625 83.558594 113.246094 83.53125 113.835938 C 83.503906 114.425781 83.496094 115.019531 83.507812 115.609375 C 83.515625 116.199219 83.542969 116.789062 83.589844 117.378906 C 83.632812 117.96875 83.695312 118.558594 83.773438 119.144531 C 83.855469 119.730469 83.953125 120.3125 84.066406 120.894531 C 84.179688 121.472656 84.3125 122.050781 84.460938 122.621094 C 84.609375 123.195312 84.773438 123.761719 84.957031 124.324219 C 85.140625 124.886719 85.339844 125.441406 85.554688 125.992188 C 85.769531 126.542969 86 127.085938 86.25 127.621094 C 86.496094 128.15625 86.761719 128.6875 87.039062 129.207031 C 87.320312 129.726562 87.613281 130.238281 87.925781 130.742188 C 88.234375 131.242188 88.558594 131.734375 88.898438 132.21875 C 89.238281 132.703125 89.589844 133.175781 89.957031 133.636719 C 90.324219 134.097656 90.707031 134.550781 91.101562 134.988281 C 91.496094 135.425781 91.902344 135.851562 92.320312 136.265625 C 92.742188 136.683594 93.171875 137.082031 93.617188 137.472656 C 94.058594 137.859375 94.511719 138.234375 94.980469 138.59375 C 95.445312 138.957031 95.921875 139.304688 96.40625 139.636719 C 96.894531 139.96875 97.390625 140.285156 97.894531 140.585938 C 98.402344 140.890625 98.914062 141.175781 99.4375 141.449219 C 99.960938 141.71875 100.488281 141.976562 101.027344 142.214844 C 101.566406 142.453125 102.109375 142.679688 102.660156 142.882812 C 103.210938 143.089844 103.769531 143.28125 104.328125 143.453125 C 104.890625 143.628906 105.460938 143.785156 106.03125 143.921875 C 106.601562 144.0625 107.175781 144.183594 107.757812 144.289062 C 108.335938 144.394531 108.917969 144.480469 109.5 144.550781 C 110.085938 144.617188 110.667969 144.671875 111.257812 144.703125 C 111.84375 144.738281 112.429688 144.753906 113.019531 144.753906 L 113.070312 144.753906 C 114.042969 144.753906 115.015625 144.703125 115.980469 144.605469 C 116.949219 144.507812 117.910156 144.359375 118.863281 144.167969 C 119.816406 143.972656 120.757812 143.730469 121.6875 143.445312 C 122.617188 143.15625 123.53125 142.824219 124.425781 142.445312 C 125.324219 142.066406 126.199219 141.644531 127.054688 141.179688 C 127.910156 140.714844 128.738281 140.210938 129.546875 139.660156 C 130.351562 139.113281 131.128906 138.527344 131.875 137.902344 C 132.621094 137.277344 133.339844 136.617188 134.019531 135.917969 C 134.703125 135.222656 135.351562 134.496094 135.960938 133.734375 C 136.574219 132.972656 137.144531 132.183594 137.679688 131.367188 C 138.210938 130.546875 138.703125 129.707031 139.15625 128.839844 C 139.605469 127.972656 140.011719 127.085938 140.375 126.179688 C 140.738281 125.273438 141.058594 124.347656 141.332031 123.410156 C 141.601562 122.472656 141.828125 121.523438 142.007812 120.5625 C 142.1875 119.601562 142.320312 118.632812 142.402344 117.65625 C 142.488281 116.683594 142.523438 115.707031 142.511719 114.730469 C 142.398438 105.378906 138.074219 96.832031 130.648438 91.277344 Z M 84.710938 120.296875 C 85.09375 120.152344 85.488281 120.039062 85.890625 119.953125 C 86.007812 119.929688 86.128906 119.90625 86.25 119.886719 L 86.4375 119.859375 L 86.449219 119.859375 L 86.582031 119.84375 C 86.820312 119.816406 87.066406 119.800781 87.308594 119.792969 C 87.554688 119.789062 87.816406 119.792969 88.074219 119.8125 C 88.195312 119.820312 88.3125 119.828125 88.433594 119.84375 L 88.578125 119.859375 L 88.636719 119.867188 L 88.734375 119.882812 C 89.222656 119.960938 89.699219 120.078125 90.167969 120.246094 L 90.316406 120.300781 L 90.390625 120.332031 C 90.488281 120.375 90.585938 120.421875 90.683594 120.46875 C 90.863281 120.558594 91.039062 120.664062 91.207031 120.777344 C 91.246094 120.808594 91.289062 120.835938 91.324219 120.867188 L 91.386719 120.917969 C 91.472656 120.988281 91.550781 121.058594 91.625 121.136719 C 91.6875 121.199219 91.746094 121.261719 91.800781 121.332031 C 91.789062 121.320312 91.785156 121.3125 91.800781 121.34375 L 91.84375 121.410156 C 91.871094 121.449219 91.902344 121.496094 91.925781 121.539062 C 91.953125 121.582031 91.976562 121.628906 92 121.675781 C 92.007812 121.691406 92.015625 121.707031 92.023438 121.722656 C 92.023438 121.726562 92.023438 121.730469 92.023438 121.734375 C 92.070312 121.824219 92.097656 121.921875 92.109375 122.023438 C 92.125 122.0625 92.132812 122.101562 92.136719 122.144531 L 92.136719 122.164062 C 92.136719 122.183594 92.136719 122.203125 92.136719 122.222656 C 92.140625 122.304688 92.140625 122.386719 92.136719 122.46875 C 92.136719 122.5 92.105469 122.640625 92.136719 122.515625 C 92.128906 122.550781 92.125 122.585938 92.117188 122.621094 C 92.109375 122.699219 92.09375 122.78125 92.074219 122.859375 C 92.054688 122.925781 92.027344 122.992188 92.003906 123.054688 L 91.980469 123.105469 L 91.925781 123.21875 C 91.847656 123.367188 91.761719 123.507812 91.667969 123.648438 C 91.625 123.710938 91.582031 123.773438 91.535156 123.839844 C 91.511719 123.871094 91.484375 123.90625 91.460938 123.9375 C 91.445312 123.953125 91.433594 123.972656 91.417969 123.992188 C 91.207031 124.261719 90.984375 124.523438 90.769531 124.792969 C 90.339844 125.332031 89.90625 125.925781 89.785156 126.625 C 89.710938 127.027344 89.734375 127.425781 89.863281 127.820312 C 90.007812 128.226562 90.222656 128.59375 90.503906 128.921875 C 90.769531 129.230469 91.046875 129.527344 91.339844 129.808594 C 91.488281 129.957031 91.628906 130.097656 91.769531 130.246094 C 91.832031 130.316406 91.898438 130.386719 91.957031 130.457031 L 92.058594 130.578125 L 92.09375 130.621094 L 92.121094 130.652344 C 92.246094 130.820312 92.359375 130.996094 92.460938 131.179688 C 92.503906 131.265625 92.550781 131.351562 92.589844 131.441406 C 92.613281 131.488281 92.632812 131.53125 92.652344 131.578125 L 92.691406 131.683594 C 92.765625 131.878906 92.828125 132.082031 92.875 132.285156 C 92.898438 132.382812 92.917969 132.476562 92.933594 132.574219 C 92.933594 132.621094 92.953125 132.671875 92.957031 132.726562 C 92.957031 132.761719 92.964844 132.800781 92.96875 132.835938 C 92.988281 133.039062 92.996094 133.246094 92.992188 133.449219 C 92.992188 133.554688 92.984375 133.65625 92.976562 133.753906 C 92.976562 133.808594 92.964844 133.863281 92.960938 133.917969 C 92.960938 133.917969 92.960938 133.960938 92.960938 133.96875 C 92.960938 133.980469 92.960938 134 92.953125 134.015625 C 92.921875 134.21875 92.875 134.421875 92.820312 134.621094 C 92.789062 134.71875 92.757812 134.8125 92.726562 134.910156 L 92.664062 135.0625 L 92.625 135.152344 C 92.582031 135.238281 92.542969 135.324219 92.496094 135.40625 C 90.46875 133.339844 88.789062 131.023438 87.460938 128.445312 C 86.136719 125.871094 85.21875 123.152344 84.710938 120.296875 Z M 133.136719 132.878906 Z M 133.339844 134.527344 L 133.351562 134.554688 C 133.347656 134.546875 133.34375 134.535156 133.339844 134.527344 Z M 133.71875 135.183594 L 133.671875 135.117188 C 133.636719 135.070312 133.601562 135.019531 133.570312 134.964844 C 133.507812 134.867188 133.449219 134.761719 133.398438 134.652344 L 133.359375 134.566406 C 133.332031 134.503906 133.3125 134.445312 133.289062 134.382812 C 133.25 134.269531 133.21875 134.15625 133.191406 134.039062 C 133.179688 133.984375 133.167969 133.929688 133.160156 133.875 C 133.160156 133.84375 133.148438 133.8125 133.144531 133.78125 C 133.140625 133.75 133.144531 133.757812 133.144531 133.753906 C 133.128906 133.632812 133.121094 133.515625 133.121094 133.394531 C 133.117188 133.273438 133.121094 133.152344 133.132812 133.035156 C 133.132812 133.003906 133.132812 132.96875 133.140625 132.9375 L 133.140625 132.925781 C 133.160156 132.863281 133.171875 132.796875 133.171875 132.734375 C 133.199219 132.617188 133.226562 132.5 133.261719 132.386719 C 133.277344 132.335938 133.296875 132.28125 133.316406 132.234375 C 133.335938 132.1875 133.339844 132.175781 133.351562 132.144531 C 133.359375 132.113281 133.339844 132.167969 133.339844 132.167969 C 133.34375 132.148438 133.351562 132.132812 133.363281 132.117188 C 133.410156 132.007812 133.464844 131.902344 133.527344 131.800781 C 133.558594 131.746094 133.589844 131.695312 133.625 131.648438 L 133.675781 131.574219 L 133.710938 131.527344 C 133.871094 131.324219 134.046875 131.136719 134.242188 130.964844 C 134.339844 130.878906 134.4375 130.796875 134.542969 130.714844 L 134.5625 130.699219 L 134.644531 130.636719 L 134.804688 130.519531 C 135.234375 130.21875 135.679688 129.9375 136.105469 129.625 C 136.46875 129.355469 136.8125 129.066406 137.136719 128.75 C 137.851562 128.050781 138.523438 127.3125 139.152344 126.535156 C 139.375 126.269531 139.589844 126 139.804688 125.730469 C 138.398438 129.285156 136.371094 132.4375 133.71875 135.179688 Z M 133.71875 135.183594 " fill-opacity="1" fill-rule="nonzero"/></g><path fill="rgb(0%, 23.529053%, 29.40979%)" d="M 111.992188 108.640625 C 112.207031 109.3125 112.621094 109.820312 113.230469 110.167969 C 113.921875 110.539062 114.640625 110.601562 115.390625 110.363281 C 116.089844 110.148438 116.714844 109.796875 117.261719 109.308594 C 117.386719 109.441406 117.511719 109.570312 117.644531 109.691406 C 118.199219 110.242188 118.855469 110.601562 119.617188 110.773438 C 120.449219 110.941406 121.296875 110.851562 122.136719 110.792969 C 122.894531 110.726562 123.652344 110.761719 124.402344 110.890625 C 125.855469 111.167969 127.207031 111.851562 128.175781 112.988281 C 128.644531 113.523438 128.988281 114.128906 129.214844 114.804688 C 129.4375 115.480469 129.527344 116.171875 129.476562 116.882812 C 129.449219 117.207031 129.382812 117.527344 129.289062 117.839844 C 129.195312 118.140625 129.074219 118.433594 128.925781 118.710938 C 128.613281 119.292969 128.21875 119.8125 127.738281 120.269531 C 127.25 120.738281 126.714844 121.140625 126.128906 121.476562 C 125.5 121.832031 124.84375 122.117188 124.152344 122.324219 C 122.523438 122.832031 120.820312 123.019531 119.132812 123.21875 C 117.550781 123.40625 115.964844 123.605469 114.4375 124.078125 C 112.980469 124.53125 111.582031 125.222656 110.476562 126.292969 C 109.324219 127.410156 108.574219 128.875 107.390625 129.964844 C 106.875 130.46875 106.277344 130.828125 105.59375 131.042969 C 105.257812 131.144531 104.917969 131.179688 104.574219 131.144531 C 104.542969 131.144531 104.511719 131.140625 104.484375 131.136719 L 104.359375 131.109375 C 104.273438 131.089844 104.183594 131.066406 104.101562 131.035156 C 103.96875 130.976562 103.847656 130.902344 103.742188 130.804688 C 103.6875 130.753906 103.644531 130.699219 103.609375 130.640625 C 103.570312 130.578125 103.539062 130.519531 103.511719 130.453125 C 103.480469 130.371094 103.453125 130.285156 103.4375 130.199219 C 103.417969 130.128906 103.40625 130.058594 103.402344 129.988281 C 103.386719 129.8125 103.386719 129.632812 103.402344 129.457031 C 103.402344 129.421875 103.410156 129.382812 103.414062 129.34375 C 103.414062 129.335938 103.414062 129.292969 103.425781 129.28125 C 103.4375 129.203125 103.453125 129.132812 103.46875 129.050781 C 103.503906 128.898438 103.546875 128.75 103.597656 128.601562 C 103.621094 128.527344 103.648438 128.449219 103.675781 128.382812 C 103.679688 128.375 103.679688 128.371094 103.675781 128.363281 L 103.6875 128.339844 C 103.703125 128.304688 103.722656 128.261719 103.738281 128.226562 C 103.871094 127.945312 104.023438 127.671875 104.199219 127.414062 C 104.285156 127.28125 104.375 127.152344 104.472656 127.023438 C 104.550781 126.917969 104.621094 126.820312 104.734375 126.6875 C 104.941406 126.433594 105.15625 126.183594 105.371094 125.933594 C 105.808594 125.433594 106.253906 124.945312 106.664062 124.425781 C 107.585938 123.316406 108.144531 122.046875 108.34375 120.617188 C 108.570312 119.160156 108.503906 117.679688 108.445312 116.210938 C 108.417969 115.480469 108.394531 114.746094 108.40625 114.011719 C 108.417969 113.652344 108.433594 113.292969 108.46875 112.933594 C 108.5 112.601562 108.546875 112.269531 108.617188 111.9375 C 108.742188 111.277344 108.957031 110.648438 109.265625 110.050781 C 109.3125 109.964844 109.324219 109.871094 109.296875 109.777344 C 109.273438 109.679688 109.21875 109.605469 109.132812 109.550781 C 109.046875 109.5 108.957031 109.488281 108.859375 109.515625 C 108.761719 109.539062 108.6875 109.597656 108.636719 109.683594 C 107.933594 111.03125 107.714844 112.546875 107.6875 114.058594 C 107.65625 115.566406 107.800781 117.074219 107.78125 118.582031 C 107.785156 119.308594 107.726562 120.03125 107.605469 120.75 C 107.476562 121.449219 107.25 122.117188 106.921875 122.75 C 106.289062 123.941406 105.335938 124.851562 104.457031 125.894531 C 103.578125 126.9375 102.792969 128.089844 102.675781 129.488281 C 102.605469 130.289062 102.84375 131.15625 103.574219 131.582031 C 104.269531 131.984375 105.179688 131.941406 105.921875 131.699219 C 107.515625 131.175781 108.570312 129.828125 109.539062 128.53125 C 110.015625 127.851562 110.550781 127.222656 111.144531 126.648438 C 111.707031 126.144531 112.328125 125.730469 113.003906 125.40625 C 114.355469 124.738281 115.90625 124.390625 117.417969 124.160156 C 119.164062 123.898438 120.929688 123.78125 122.667969 123.441406 C 124.238281 123.128906 125.785156 122.621094 127.113281 121.703125 C 128.3125 120.878906 129.316406 119.777344 129.851562 118.410156 C 130.417969 116.964844 130.289062 115.359375 129.652344 113.960938 C 128.957031 112.484375 127.867188 111.417969 126.382812 110.757812 C 125.628906 110.417969 124.84375 110.195312 124.023438 110.09375 C 123.207031 109.988281 122.398438 110.042969 121.578125 110.101562 C 121.148438 110.140625 120.71875 110.148438 120.289062 110.128906 C 120.097656 110.117188 119.90625 110.089844 119.714844 110.046875 C 119.625 110.027344 119.535156 110.003906 119.445312 109.976562 L 119.292969 109.921875 L 119.195312 109.882812 C 118.65625 109.621094 118.191406 109.265625 117.800781 108.8125 C 118.257812 108.359375 118.691406 107.878906 119.128906 107.421875 C 119.632812 106.871094 120.210938 106.417969 120.871094 106.066406 C 120.953125 106.015625 121.011719 105.941406 121.035156 105.84375 C 121.0625 105.746094 121.050781 105.652344 121 105.566406 C 120.949219 105.480469 120.875 105.425781 120.777344 105.398438 C 120.679688 105.375 120.589844 105.386719 120.5 105.433594 C 119.195312 106.085938 118.339844 107.289062 117.320312 108.285156 C 116.9375 107.816406 116.511719 107.394531 116.039062 107.011719 C 115.492188 106.605469 114.882812 106.363281 114.207031 106.28125 C 113.539062 106.179688 112.953125 106.355469 112.449219 106.8125 C 112.207031 107.046875 112.046875 107.332031 111.964844 107.660156 C 111.882812 107.988281 111.890625 108.316406 111.992188 108.640625 Z M 112.980469 108.996094 C 112.949219 108.960938 112.972656 108.992188 112.980469 108.996094 Z M 112.703125 107.691406 Z M 112.640625 107.933594 C 112.640625 107.957031 112.640625 107.957031 112.640625 107.933594 Z M 112.640625 107.972656 C 112.640625 107.957031 112.640625 107.945312 112.640625 107.929688 C 112.652344 107.867188 112.667969 107.804688 112.6875 107.746094 C 112.6875 107.726562 112.699219 107.707031 112.707031 107.6875 C 112.710938 107.667969 112.738281 107.625 112.753906 107.589844 L 112.808594 107.503906 L 112.84375 107.453125 C 112.886719 107.402344 112.929688 107.351562 112.980469 107.304688 C 113 107.289062 113.015625 107.273438 113.035156 107.257812 L 113.078125 107.226562 C 113.136719 107.1875 113.199219 107.148438 113.265625 107.117188 C 113.277344 107.117188 113.304688 107.101562 113.3125 107.097656 L 113.375 107.074219 C 113.445312 107.050781 113.515625 107.035156 113.585938 107.019531 L 113.65625 107.007812 L 113.710938 107.007812 C 113.785156 107 113.863281 106.996094 113.9375 107 C 114.003906 107 114.070312 107 114.136719 107.011719 L 114.195312 107.011719 L 114.308594 107.03125 C 114.457031 107.058594 114.601562 107.097656 114.746094 107.144531 C 114.808594 107.167969 114.867188 107.1875 114.929688 107.214844 L 115.003906 107.246094 L 115.117188 107.300781 C 115.253906 107.367188 115.382812 107.445312 115.511719 107.53125 C 115.566406 107.566406 115.617188 107.605469 115.671875 107.644531 L 115.730469 107.691406 L 115.820312 107.769531 C 115.949219 107.886719 116.074219 108.011719 116.199219 108.136719 C 116.394531 108.34375 116.585938 108.558594 116.773438 108.773438 C 116.324219 109.164062 115.820312 109.453125 115.253906 109.644531 C 114.921875 109.75 114.578125 109.789062 114.226562 109.757812 L 114.1875 109.757812 L 114.085938 109.738281 C 114.007812 109.71875 113.929688 109.699219 113.855469 109.667969 L 113.796875 109.648438 L 113.71875 109.613281 C 113.648438 109.574219 113.574219 109.535156 113.507812 109.492188 C 113.453125 109.457031 113.398438 109.417969 113.34375 109.378906 C 113.335938 109.367188 113.292969 109.335938 113.285156 109.328125 C 113.253906 109.300781 113.226562 109.273438 113.195312 109.246094 C 113.144531 109.199219 113.09375 109.148438 113.046875 109.097656 C 113.019531 109.066406 112.996094 109.035156 112.972656 109.007812 L 112.933594 108.953125 C 112.894531 108.894531 112.859375 108.839844 112.824219 108.777344 C 112.804688 108.746094 112.785156 108.710938 112.769531 108.675781 C 112.769531 108.664062 112.746094 108.625 112.738281 108.609375 C 112.691406 108.488281 112.65625 108.363281 112.632812 108.234375 C 112.632812 108.222656 112.632812 108.199219 112.632812 108.1875 C 112.632812 108.171875 112.632812 108.121094 112.632812 108.089844 C 112.632812 108.058594 112.636719 108.007812 112.636719 107.972656 Z M 112.640625 107.972656 " fill-opacity="1" fill-rule="nonzero"/><path fill="rgb(0%, 23.529053%, 29.40979%)" d="M 125.652344 138.023438 C 125.746094 138.023438 125.84375 138.023438 125.933594 138.023438 C 126.011719 138.019531 126.089844 138.027344 126.167969 138.039062 L 126.1875 138.039062 L 126.238281 138.046875 C 126.289062 138.058594 126.335938 138.070312 126.386719 138.085938 C 126.425781 138.09375 126.464844 138.105469 126.503906 138.121094 L 126.519531 138.121094 L 126.550781 138.136719 C 126.582031 138.152344 126.617188 138.171875 126.652344 138.191406 L 126.699219 138.222656 C 126.726562 138.246094 126.753906 138.273438 126.78125 138.300781 L 126.8125 138.335938 C 126.832031 138.363281 126.851562 138.394531 126.867188 138.425781 C 126.882812 138.457031 126.886719 138.457031 126.890625 138.476562 C 126.894531 138.476562 126.894531 138.480469 126.890625 138.484375 C 126.921875 138.582031 126.980469 138.65625 127.066406 138.703125 C 127.152344 138.753906 127.246094 138.765625 127.34375 138.742188 C 127.4375 138.710938 127.511719 138.65625 127.5625 138.566406 C 127.609375 138.476562 127.621094 138.386719 127.59375 138.289062 C 127.441406 137.859375 127.152344 137.566406 126.722656 137.414062 C 126.347656 137.28125 125.964844 137.238281 125.570312 137.28125 C 125.167969 137.332031 124.773438 137.410156 124.382812 137.515625 C 124.289062 137.539062 124.195312 137.558594 124.101562 137.574219 C 124.054688 137.585938 124.003906 137.59375 123.957031 137.601562 L 123.898438 137.609375 L 123.851562 137.609375 C 123.660156 137.640625 123.464844 137.652344 123.269531 137.640625 L 123.207031 137.640625 C 123.164062 137.636719 123.125 137.625 123.082031 137.613281 C 123.039062 137.601562 123 137.589844 122.957031 137.574219 L 122.9375 137.566406 L 122.917969 137.566406 L 122.886719 137.546875 C 122.847656 137.527344 122.8125 137.503906 122.777344 137.480469 L 122.738281 137.449219 C 122.707031 137.417969 122.679688 137.382812 122.648438 137.355469 L 122.597656 137.273438 C 122.582031 137.246094 122.566406 137.214844 122.550781 137.183594 L 122.550781 137.175781 C 122.527344 137.121094 122.507812 137.066406 122.496094 137.007812 C 122.464844 136.894531 122.441406 136.777344 122.421875 136.660156 C 122.390625 136.433594 122.339844 136.210938 122.269531 135.992188 C 121.964844 135.183594 121.417969 134.617188 120.621094 134.292969 C 119.820312 133.945312 119 133.871094 118.152344 134.078125 C 117.191406 134.316406 116.34375 134.871094 115.601562 135.523438 C 114.890625 136.152344 114.300781 136.894531 113.671875 137.601562 C 113.363281 137.957031 113.035156 138.289062 112.683594 138.601562 L 112.558594 138.707031 L 112.488281 138.761719 L 112.476562 138.773438 C 112.378906 138.84375 112.28125 138.921875 112.175781 138.980469 C 111.976562 139.113281 111.769531 139.222656 111.550781 139.320312 L 111.542969 139.320312 L 111.519531 139.328125 L 111.433594 139.359375 L 111.242188 139.429688 C 111.117188 139.46875 110.992188 139.503906 110.863281 139.535156 C 110.601562 139.601562 110.339844 139.648438 110.074219 139.6875 C 109.5625 139.757812 109.054688 139.851562 108.546875 139.976562 C 107.703125 140.207031 106.839844 140.675781 106.382812 141.453125 C 106.269531 141.648438 106.1875 141.855469 106.136719 142.078125 C 106.109375 142.175781 106.121094 142.265625 106.171875 142.355469 C 106.222656 142.441406 106.292969 142.5 106.390625 142.527344 C 106.488281 142.550781 106.578125 142.539062 106.667969 142.492188 C 106.753906 142.441406 106.8125 142.367188 106.835938 142.269531 C 106.859375 142.183594 106.882812 142.101562 106.914062 142.019531 C 106.914062 142.027344 106.945312 141.941406 106.957031 141.921875 C 106.984375 141.871094 107.011719 141.820312 107.042969 141.773438 C 107.066406 141.730469 107.09375 141.691406 107.121094 141.652344 L 107.167969 141.59375 C 107.234375 141.515625 107.304688 141.445312 107.378906 141.375 C 107.417969 141.34375 107.453125 141.3125 107.492188 141.28125 L 107.519531 141.257812 L 107.558594 141.230469 C 107.644531 141.167969 107.734375 141.113281 107.824219 141.058594 C 107.914062 141.003906 108 140.960938 108.089844 140.917969 L 108.214844 140.859375 L 108.238281 140.847656 L 108.339844 140.8125 C 109.261719 140.460938 110.269531 140.457031 111.214844 140.191406 C 111.703125 140.058594 112.160156 139.855469 112.578125 139.574219 C 112.976562 139.304688 113.339844 138.996094 113.675781 138.652344 C 114.324219 137.996094 114.875 137.257812 115.519531 136.59375 C 115.6875 136.421875 115.855469 136.257812 116.03125 136.097656 C 116.113281 136.023438 116.191406 135.953125 116.273438 135.886719 L 116.40625 135.777344 L 116.46875 135.722656 L 116.488281 135.710938 L 116.503906 135.699219 C 116.871094 135.417969 117.261719 135.179688 117.683594 134.988281 L 117.722656 134.972656 L 117.777344 134.949219 L 117.929688 134.890625 C 118.039062 134.851562 118.148438 134.820312 118.261719 134.789062 C 118.375 134.757812 118.457031 134.742188 118.5625 134.722656 C 118.582031 134.722656 118.726562 134.6875 118.625 134.710938 C 118.679688 134.699219 118.734375 134.695312 118.789062 134.695312 C 118.96875 134.679688 119.152344 134.679688 119.335938 134.695312 L 119.472656 134.707031 L 119.484375 134.707031 L 119.539062 134.714844 C 119.640625 134.734375 119.738281 134.753906 119.839844 134.78125 C 119.941406 134.804688 120.015625 134.828125 120.101562 134.859375 L 120.230469 134.90625 L 120.277344 134.925781 L 120.289062 134.925781 L 120.304688 134.933594 C 120.472656 135.007812 120.628906 135.097656 120.785156 135.199219 L 120.867188 135.261719 L 120.941406 135.316406 C 121.011719 135.382812 121.082031 135.449219 121.148438 135.515625 C 121.179688 135.546875 121.207031 135.582031 121.238281 135.613281 L 121.269531 135.65625 C 121.320312 135.726562 121.367188 135.796875 121.414062 135.871094 C 121.449219 135.941406 121.484375 136.011719 121.515625 136.085938 C 121.515625 136.105469 121.542969 136.152344 121.550781 136.167969 C 121.566406 136.21875 121.582031 136.269531 121.597656 136.320312 C 121.65625 136.550781 121.683594 136.789062 121.734375 137.019531 C 121.8125 137.511719 122.0625 137.886719 122.484375 138.144531 C 123.210938 138.558594 124.132812 138.359375 124.898438 138.15625 C 125.078125 138.097656 125.257812 138.0625 125.445312 138.039062 C 125.339844 138.046875 125.484375 138.039062 125.507812 138.039062 Z M 112.488281 138.71875 Z M 122.519531 137.128906 C 122.511719 137.117188 122.519531 137.121094 122.519531 137.128906 Z M 122.917969 137.546875 L 122.949219 137.5625 C 122.949219 137.5625 122.929688 137.554688 122.917969 137.546875 Z M 123.226562 137.632812 L 123.257812 137.632812 C 123.246094 137.640625 123.238281 137.640625 123.226562 137.640625 Z M 123.226562 137.632812 " fill-opacity="1" fill-rule="nonzero"/><path fill="rgb(0%, 23.529053%, 29.40979%)" d="M 91.21875 125.398438 L 91.207031 125.414062 C 91.195312 125.425781 91.175781 125.46875 91.21875 125.398438 Z M 91.21875 125.398438 " fill-opacity="1" fill-rule="nonzero"/><path fill="rgb(0%, 23.529053%, 29.40979%)" d="M 91.464844 123.9375 C 91.402344 124.007812 91.449219 123.957031 91.464844 123.9375 Z M 91.464844 123.9375 " fill-opacity="1" fill-rule="nonzero"/><path fill="rgb(0%, 23.529053%, 29.40979%)" d="M 90.484375 126.867188 C 90.507812 126.78125 90.488281 126.835938 90.484375 126.867188 Z M 90.484375 126.867188 " fill-opacity="1" fill-rule="nonzero"/><path fill="rgb(0%, 23.529053%, 29.40979%)" d="M 116.269531 85.492188 L 116.28125 85.46875 Z M 116.269531 85.492188 " fill-opacity="1" fill-rule="nonzero"/><g clip-path="url(#id8)"><path fill="rgb(0%, 23.529053%, 29.40979%)" d="M 118.179688 97.671875 C 119.265625 99.453125 120.421875 101.1875 121.503906 102.972656 C 121.65625 103.226562 121.8125 103.480469 121.964844 103.738281 C 122 103.792969 122.042969 103.835938 122.097656 103.871094 C 122.15625 103.902344 122.214844 103.917969 122.277344 103.917969 C 122.34375 103.917969 122.402344 103.902344 122.457031 103.871094 C 122.515625 103.835938 122.558594 103.792969 122.59375 103.738281 C 123.664062 102.164062 124.636719 100.527344 125.507812 98.828125 C 125.925781 98.039062 126.335938 97.246094 126.75 96.457031 C 127.183594 95.636719 127.605469 94.824219 127.949219 93.96875 C 128.660156 92.246094 129.089844 90.453125 129.246094 88.59375 C 129.328125 87.707031 129.328125 86.824219 129.246094 85.941406 C 129.183594 85.191406 128.996094 84.476562 128.679688 83.796875 C 128.359375 83.140625 127.898438 82.601562 127.296875 82.1875 C 126.59375 81.714844 125.820312 81.441406 124.976562 81.359375 C 124.113281 81.261719 123.300781 81.417969 122.535156 81.824219 C 122.160156 82.035156 121.820312 82.285156 121.503906 82.578125 C 121.210938 82.839844 120.945312 83.125 120.699219 83.4375 C 119.679688 84.734375 119.101562 86.378906 119.304688 88.039062 C 119.5 89.628906 120.335938 91.285156 121.808594 92.03125 C 122.5 92.378906 123.355469 92.558594 124.097656 92.261719 C 124.949219 91.917969 125.398438 91.117188 125.652344 90.269531 C 125.90625 89.425781 126 88.425781 125.695312 87.554688 C 125.558594 87.148438 125.34375 86.789062 125.042969 86.476562 C 124.746094 86.167969 124.394531 85.9375 123.992188 85.789062 C 123.609375 85.652344 123.214844 85.628906 122.816406 85.710938 C 122.71875 85.738281 122.648438 85.796875 122.597656 85.882812 C 122.546875 85.972656 122.535156 86.066406 122.5625 86.164062 C 122.59375 86.261719 122.652344 86.332031 122.738281 86.382812 C 122.824219 86.433594 122.917969 86.445312 123.015625 86.417969 C 123.027344 86.417969 123.109375 86.40625 123.105469 86.40625 L 123.210938 86.40625 C 123.289062 86.402344 123.367188 86.40625 123.445312 86.414062 L 123.535156 86.429688 C 123.578125 86.4375 123.621094 86.449219 123.660156 86.460938 L 123.769531 86.496094 L 123.867188 86.53125 C 124.019531 86.601562 124.160156 86.683594 124.296875 86.785156 L 124.367188 86.84375 L 124.453125 86.921875 C 124.523438 86.988281 124.589844 87.054688 124.648438 87.128906 L 124.6875 87.179688 L 124.695312 87.1875 C 124.71875 87.222656 124.742188 87.253906 124.761719 87.285156 C 124.816406 87.367188 124.863281 87.449219 124.90625 87.535156 C 124.941406 87.601562 124.96875 87.671875 124.992188 87.742188 C 125.03125 87.847656 125.0625 87.953125 125.085938 88.058594 C 125.132812 88.242188 125.15625 88.429688 125.160156 88.617188 C 125.167969 88.828125 125.160156 89.039062 125.136719 89.25 C 125.136719 89.269531 125.136719 89.289062 125.136719 89.308594 C 125.136719 89.3125 125.136719 89.320312 125.136719 89.324219 C 125.128906 89.378906 125.121094 89.429688 125.109375 89.476562 C 125.089844 89.578125 125.070312 89.683594 125.042969 89.785156 C 124.996094 89.984375 124.933594 90.179688 124.863281 90.375 C 124.847656 90.417969 124.832031 90.464844 124.8125 90.511719 L 124.8125 90.519531 L 124.769531 90.582031 C 124.726562 90.679688 124.675781 90.769531 124.621094 90.859375 C 124.539062 91.015625 124.433594 91.15625 124.304688 91.277344 C 124.269531 91.308594 124.234375 91.339844 124.195312 91.375 L 124.1875 91.375 L 124.144531 91.402344 C 124.070312 91.457031 123.992188 91.5 123.910156 91.539062 L 123.878906 91.558594 L 123.867188 91.558594 L 123.75 91.597656 C 123.664062 91.621094 123.578125 91.640625 123.492188 91.65625 L 123.445312 91.65625 C 123.402344 91.65625 123.359375 91.65625 123.316406 91.65625 C 123.226562 91.65625 123.136719 91.65625 123.046875 91.644531 L 122.972656 91.636719 L 122.867188 91.617188 C 122.78125 91.601562 122.695312 91.578125 122.613281 91.554688 C 122.527344 91.53125 122.441406 91.496094 122.359375 91.464844 L 122.339844 91.488281 L 122.296875 91.46875 C 122.257812 91.449219 122.214844 91.429688 122.175781 91.410156 C 122.015625 91.328125 121.859375 91.234375 121.710938 91.128906 L 121.636719 91.070312 L 121.546875 91 C 121.480469 90.941406 121.414062 90.878906 121.351562 90.816406 C 121.21875 90.683594 121.097656 90.542969 120.980469 90.398438 L 120.972656 90.386719 L 120.929688 90.328125 L 120.851562 90.214844 C 120.796875 90.140625 120.746094 90.066406 120.699219 89.980469 C 120.601562 89.820312 120.515625 89.65625 120.4375 89.484375 L 120.386719 89.375 L 120.355469 89.296875 C 120.320312 89.207031 120.289062 89.113281 120.253906 89.015625 C 120.195312 88.839844 120.144531 88.65625 120.105469 88.472656 C 120.085938 88.386719 120.070312 88.300781 120.054688 88.214844 C 120.046875 88.167969 120.042969 88.121094 120.035156 88.074219 C 120.035156 88.042969 120.035156 88.011719 120.023438 87.980469 C 120.003906 87.796875 119.992188 87.605469 119.992188 87.417969 C 119.988281 87.230469 119.996094 87.042969 120.015625 86.855469 L 120.03125 86.730469 L 120.03125 86.722656 L 120.039062 86.65625 C 120.054688 86.558594 120.070312 86.464844 120.089844 86.375 C 120.128906 86.1875 120.175781 86.003906 120.230469 85.824219 C 120.257812 85.738281 120.289062 85.652344 120.316406 85.570312 C 120.332031 85.523438 120.351562 85.480469 120.367188 85.4375 C 120.375 85.414062 120.386719 85.394531 120.394531 85.371094 L 120.394531 85.34375 C 120.542969 84.992188 120.722656 84.660156 120.933594 84.339844 C 120.980469 84.265625 121.03125 84.191406 121.082031 84.121094 C 121.109375 84.082031 121.140625 84.042969 121.167969 84.007812 L 121.183594 83.984375 L 121.230469 83.925781 C 121.351562 83.773438 121.476562 83.632812 121.605469 83.492188 C 121.738281 83.355469 121.867188 83.230469 122.003906 83.109375 C 122.074219 83.042969 122.152344 82.980469 122.21875 82.921875 L 122.328125 82.832031 L 122.347656 82.816406 L 122.398438 82.78125 C 122.550781 82.664062 122.714844 82.558594 122.886719 82.464844 C 122.96875 82.417969 123.050781 82.378906 123.132812 82.339844 C 123.148438 82.339844 123.199219 82.316406 123.207031 82.3125 L 123.355469 82.257812 C 123.539062 82.195312 123.722656 82.152344 123.910156 82.117188 L 124.007812 82.105469 C 124.046875 82.097656 124.089844 82.09375 124.132812 82.089844 C 124.226562 82.082031 124.324219 82.078125 124.417969 82.074219 C 125.171875 82.0625 125.882812 82.234375 126.550781 82.589844 C 126.699219 82.671875 126.84375 82.761719 126.984375 82.859375 L 127.066406 82.921875 L 127.113281 82.960938 C 127.183594 83.019531 127.246094 83.078125 127.308594 83.132812 C 127.417969 83.242188 127.523438 83.355469 127.621094 83.476562 C 127.632812 83.492188 127.644531 83.503906 127.652344 83.519531 C 127.671875 83.546875 127.695312 83.574219 127.714844 83.601562 C 127.761719 83.671875 127.808594 83.742188 127.855469 83.8125 C 127.9375 83.949219 128.011719 84.089844 128.082031 84.234375 C 128.097656 84.269531 128.113281 84.308594 128.128906 84.34375 C 128.136719 84.355469 128.140625 84.367188 128.144531 84.378906 C 128.175781 84.460938 128.207031 84.542969 128.234375 84.625 C 128.339844 84.941406 128.421875 85.269531 128.472656 85.601562 C 128.472656 85.640625 128.484375 85.675781 128.492188 85.714844 C 128.492188 85.730469 128.492188 85.742188 128.492188 85.757812 C 128.492188 85.765625 128.492188 85.773438 128.492188 85.78125 C 128.5 85.867188 128.511719 85.957031 128.519531 86.042969 C 128.539062 86.238281 128.546875 86.4375 128.554688 86.632812 C 128.570312 87.070312 128.570312 87.507812 128.554688 87.941406 C 128.523438 88.800781 128.417969 89.648438 128.246094 90.484375 C 128.070312 91.34375 127.835938 92.1875 127.539062 93.011719 C 127.253906 93.816406 126.910156 94.59375 126.511719 95.347656 C 126.121094 96.085938 125.726562 96.824219 125.339844 97.566406 C 124.515625 99.152344 123.671875 100.734375 122.710938 102.242188 C 122.574219 102.460938 122.429688 102.675781 122.285156 102.890625 C 121.28125 101.230469 120.230469 99.605469 119.203125 97.964844 C 118.738281 97.21875 118.28125 96.46875 117.851562 95.703125 C 117.652344 95.339844 117.457031 94.972656 117.277344 94.597656 C 117.1875 94.421875 117.101562 94.238281 117.019531 94.054688 L 116.910156 93.8125 L 116.839844 93.648438 C 116.839844 93.640625 116.8125 93.578125 116.808594 93.570312 C 116.511719 92.847656 116.273438 92.101562 116.09375 91.335938 C 116 90.945312 115.925781 90.546875 115.867188 90.148438 L 115.847656 90.019531 C 115.847656 90.019531 115.835938 89.9375 115.835938 89.921875 C 115.820312 89.808594 115.808594 89.699219 115.796875 89.589844 C 115.777344 89.378906 115.757812 89.164062 115.746094 88.949219 C 115.714844 88.511719 115.714844 88.070312 115.746094 87.632812 C 115.746094 87.53125 115.765625 87.429688 115.777344 87.332031 C 115.777344 87.3125 115.789062 87.242188 115.777344 87.316406 L 115.785156 87.253906 C 115.792969 87.1875 115.804688 87.125 115.816406 87.0625 C 115.855469 86.847656 115.902344 86.636719 115.957031 86.429688 C 116.015625 86.222656 116.078125 86.015625 116.152344 85.8125 C 116.1875 85.710938 116.230469 85.609375 116.269531 85.511719 C 116.273438 85.503906 116.277344 85.496094 116.28125 85.488281 C 116.289062 85.472656 116.292969 85.457031 116.300781 85.441406 C 116.324219 85.386719 116.347656 85.332031 116.375 85.277344 C 116.558594 84.882812 116.769531 84.507812 117.015625 84.148438 C 117.078125 84.0625 117.136719 83.972656 117.203125 83.882812 L 117.242188 83.832031 L 117.273438 83.789062 C 117.285156 83.773438 117.304688 83.75 117.304688 83.75 L 117.363281 83.675781 C 117.5 83.507812 117.644531 83.34375 117.792969 83.1875 C 117.941406 83.035156 118.089844 82.886719 118.257812 82.734375 C 118.335938 82.664062 118.417969 82.59375 118.5 82.523438 L 118.613281 82.433594 L 118.660156 82.398438 L 118.707031 82.359375 C 119.050781 82.097656 119.414062 81.871094 119.796875 81.671875 C 119.894531 81.625 119.992188 81.574219 120.085938 81.53125 L 120.238281 81.464844 L 120.253906 81.464844 L 120.328125 81.433594 C 120.527344 81.351562 120.734375 81.285156 120.9375 81.21875 C 121.144531 81.15625 121.355469 81.109375 121.566406 81.070312 C 121.664062 81.042969 121.738281 80.984375 121.785156 80.894531 C 121.835938 80.808594 121.847656 80.714844 121.820312 80.617188 C 121.792969 80.519531 121.734375 80.449219 121.644531 80.398438 C 121.558594 80.347656 121.46875 80.335938 121.371094 80.363281 C 119.542969 80.753906 118.042969 81.683594 116.871094 83.144531 C 115.71875 84.558594 115 86.332031 114.992188 88.171875 C 114.992188 89.886719 115.289062 91.550781 115.878906 93.160156 C 116.464844 94.734375 117.296875 96.226562 118.179688 97.671875 Z M 124.679688 87.164062 Z M 124.679688 87.164062 " fill-opacity="1" fill-rule="nonzero"/></g></svg>