<svg xmlns="http://www.w3.org/2000/svg" xmlns:xlink="http://www.w3.org/1999/xlink" width="300" zoomAndPan="magnify" viewBox="0 0 224.87999 225" height="300" preserveAspectRatio="xMidYMid meet" version="1.0"><defs><filter x="0%" y="0%" width="100%" xlink:type="simple" xlink:actuate="onLoad" height="100%" id="id1" xlink:show="other"><feColorMatrix values="0 0 0 0 1 0 0 0 0 1 0 0 0 0 1 0 0 0 1 0" color-interpolation-filters="sRGB"/></filter><g><g id="id2"/></g><mask id="id3"><g filter="url(#id1)"><rect x="-22.487999" width="269.855988" fill="rgb(0%, 0%, 0%)" y="-22.5" height="270" fill-opacity="0.2471"/></g></mask><clipPath id="id4"><path d="M 4 12 L 53 12 L 53 50 L 4 50 Z M 4 12 " clip-rule="nonzero"/></clipPath><clipPath id="id5"><path d="M 61.882812 41.125 L 11.9375 61.578125 L -5.960938 17.875 L 43.984375 -2.578125 Z M 61.882812 41.125 " clip-rule="nonzero"/></clipPath><clipPath id="id6"><path d="M 61.882812 41.125 L 11.9375 61.578125 L -5.960938 17.875 L 43.984375 -2.578125 Z M 61.882812 41.125 " clip-rule="nonzero"/></clipPath><clipPath id="id7"><rect x="0" width="56" y="0" height="58"/></clipPath><clipPath id="id8"><path d="M 83 58 L 142.664062 58 L 142.664062 118 L 83 118 Z M 83 58 " clip-rule="nonzero"/></clipPath><clipPath id="id9"><path d="M 114 53.554688 L 130 53.554688 L 130 78 L 114 78 Z M 114 53.554688 " clip-rule="nonzero"/></clipPath></defs><g mask="url(#id3)"><g transform="matrix(1, 0, 0, 1, 81, 60)"><g clip-path="url(#id7)"><g clip-path="url(#id4)"><g clip-path="url(#id5)"><g clip-path="url(#id6)"><path fill="rgb(23.919678%, 47.059631%, 53.729248%)" d="M 22.394531 48.035156 C 13.246094 44.695312 -3.996094 22.578125 9.074219 13.941406 C 17.910156 8.101562 19.332031 17.480469 31.476562 24.839844 C 35.5 27.273438 55.152344 24.789062 52.285156 37.289062 C 50.582031 44.695312 34.359375 52.394531 22.394531 48.035156 Z M 22.394531 48.035156 " fill-opacity="1" fill-rule="nonzero"/></g></g></g></g></g></g><g clip-path="url(#id8)"><path fill="rgb(0%, 23.529053%, 29.40979%)" d="M 130.648438 64.523438 C 130.566406 64.457031 130.476562 64.433594 130.375 64.445312 C 130.273438 64.460938 130.191406 64.507812 130.132812 64.589844 C 130.070312 64.671875 130.046875 64.765625 130.0625 64.867188 C 130.082031 64.96875 130.128906 65.046875 130.214844 65.105469 C 137.460938 70.527344 141.675781 78.863281 141.785156 87.984375 C 141.820312 91.007812 141.398438 93.96875 140.519531 96.859375 C 139.960938 97.574219 139.40625 98.292969 138.832031 98.992188 C 138.183594 99.800781 137.496094 100.574219 136.769531 101.308594 C 136.601562 101.472656 136.433594 101.628906 136.261719 101.78125 C 136.179688 101.855469 136.097656 101.929688 136.011719 102 L 135.890625 102.097656 L 135.839844 102.136719 C 135.878906 102.105469 135.832031 102.136719 135.820312 102.152344 C 135.40625 102.46875 134.957031 102.742188 134.53125 103.042969 C 134.0625 103.351562 133.644531 103.714844 133.269531 104.132812 C 132.910156 104.554688 132.65625 105.03125 132.511719 105.566406 C 132.222656 106.648438 132.375 107.664062 132.960938 108.613281 C 133.035156 108.730469 133.121094 108.839844 133.203125 108.945312 C 131.878906 110.265625 130.4375 111.445312 128.882812 112.484375 C 127.324219 113.523438 125.683594 114.398438 123.957031 115.113281 C 122.230469 115.824219 120.453125 116.363281 118.621094 116.726562 C 116.789062 117.089844 114.9375 117.269531 113.070312 117.269531 L 113.023438 117.269531 C 111.175781 117.277344 109.347656 117.105469 107.535156 116.757812 C 105.722656 116.40625 103.957031 115.886719 102.246094 115.195312 C 100.53125 114.503906 98.902344 113.652344 97.351562 112.640625 C 95.804688 111.632812 94.367188 110.480469 93.039062 109.191406 C 93.480469 108.414062 93.710938 107.578125 93.730469 106.683594 C 93.75 105.785156 93.554688 104.941406 93.144531 104.144531 C 92.738281 103.371094 92.105469 102.789062 91.503906 102.175781 C 91.355469 102.023438 91.21875 101.875 91.085938 101.722656 L 90.992188 101.613281 L 90.984375 101.601562 C 90.972656 101.585938 90.960938 101.566406 90.949219 101.550781 C 90.890625 101.472656 90.832031 101.390625 90.78125 101.304688 C 90.734375 101.226562 90.6875 101.144531 90.648438 101.0625 L 90.617188 100.992188 C 90.597656 100.945312 90.582031 100.898438 90.566406 100.851562 C 90.535156 100.761719 90.515625 100.675781 90.496094 100.582031 C 90.496094 100.566406 90.488281 100.539062 90.488281 100.519531 L 90.488281 100.5 C 90.488281 100.453125 90.488281 100.402344 90.476562 100.351562 C 90.476562 100.273438 90.476562 100.199219 90.488281 100.117188 C 90.488281 100.117188 90.488281 100.125 90.488281 100.128906 C 90.492188 100.109375 90.496094 100.085938 90.5 100.066406 C 90.5 100.023438 90.515625 99.984375 90.523438 99.941406 C 90.542969 99.867188 90.5625 99.792969 90.589844 99.722656 C 90.601562 99.683594 90.617188 99.644531 90.632812 99.605469 L 90.652344 99.554688 C 90.796875 99.25 90.972656 98.960938 91.175781 98.695312 C 91.1875 98.675781 91.203125 98.660156 91.214844 98.640625 L 91.289062 98.546875 L 91.460938 98.332031 C 91.574219 98.195312 91.683594 98.0625 91.792969 97.925781 C 92.03125 97.644531 92.246094 97.347656 92.441406 97.035156 C 92.824219 96.394531 93.019531 95.628906 92.78125 94.898438 C 92.503906 94.039062 91.761719 93.421875 90.972656 93.039062 C 90.042969 92.605469 89.0625 92.363281 88.035156 92.316406 C 86.992188 92.25 85.972656 92.371094 84.972656 92.671875 C 84.839844 92.710938 84.714844 92.757812 84.585938 92.800781 C 84.371094 91.390625 84.261719 89.96875 84.25 88.542969 C 84.222656 85.148438 84.773438 81.847656 85.902344 78.648438 C 86.0625 78.203125 86.320312 77.816406 86.667969 77.496094 C 87.015625 77.175781 87.417969 76.953125 87.875 76.828125 C 89.09375 76.488281 90.011719 76.484375 90.453125 76.828125 C 90.695312 77.015625 90.816406 77.320312 90.816406 77.757812 C 90.816406 79.191406 90.160156 80.566406 89.464844 82.019531 C 88.769531 83.476562 88.046875 85 88.046875 86.597656 C 88.046875 87.464844 88.132812 88.390625 88.753906 88.652344 C 89.609375 89.007812 90.804688 88.003906 94.191406 84.59375 C 96.15625 82.621094 98.050781 82.179688 99.574219 81.820312 C 101.316406 81.414062 102.820312 81.066406 103.332031 78.628906 C 103.796875 76.425781 103 74.300781 102.296875 72.425781 C 101.621094 70.617188 100.980469 68.914062 101.558594 67.449219 C 102.191406 65.832031 102.890625 65.15625 103.492188 64.710938 C 103.804688 64.480469 104.074219 64.210938 104.300781 63.898438 C 104.527344 63.585938 104.699219 63.246094 104.816406 62.875 C 104.933594 62.507812 104.992188 62.128906 104.992188 61.742188 C 104.988281 61.355469 104.925781 60.976562 104.804688 60.609375 C 107.277344 59.871094 109.804688 59.476562 112.382812 59.417969 L 112.390625 59.417969 C 112.691406 59.417969 112.976562 59.410156 113.269531 59.417969 C 113.367188 59.417969 113.453125 59.382812 113.523438 59.3125 C 113.597656 59.242188 113.632812 59.15625 113.632812 59.054688 C 113.632812 58.953125 113.597656 58.867188 113.523438 58.796875 C 113.453125 58.726562 113.367188 58.6875 113.269531 58.6875 L 112.949219 58.6875 C 110.929688 58.691406 108.933594 58.898438 106.957031 59.3125 C 104.980469 59.726562 103.066406 60.335938 101.214844 61.144531 C 99.363281 61.953125 97.613281 62.945312 95.964844 64.113281 C 94.316406 65.285156 92.800781 66.613281 91.421875 68.09375 C 91.351562 68.167969 91.320312 68.257812 91.324219 68.359375 C 91.324219 68.460938 91.363281 68.546875 91.4375 68.613281 C 91.511719 68.683594 91.597656 68.714844 91.699219 68.710938 C 91.800781 68.707031 91.886719 68.667969 91.953125 68.59375 C 93.617188 66.800781 95.476562 65.246094 97.535156 63.925781 C 99.59375 62.609375 101.78125 61.574219 104.101562 60.816406 C 104.203125 61.113281 104.253906 61.417969 104.253906 61.726562 C 104.257812 62.039062 104.210938 62.34375 104.117188 62.640625 C 104.023438 62.9375 103.886719 63.210938 103.703125 63.464844 C 103.519531 63.71875 103.304688 63.933594 103.050781 64.117188 C 102.371094 64.625 101.578125 65.382812 100.875 67.171875 C 100.195312 68.902344 100.882812 70.734375 101.609375 72.675781 C 102.3125 74.542969 103.035156 76.472656 102.617188 78.472656 C 102.199219 80.445312 101.148438 80.691406 99.40625 81.101562 C 97.789062 81.476562 95.78125 81.949219 93.675781 84.066406 C 92.039062 85.710938 89.570312 88.191406 89.023438 87.96875 C 88.980469 87.949219 88.765625 87.796875 88.765625 86.589844 C 88.765625 85.15625 89.421875 83.785156 90.117188 82.328125 C 90.8125 80.871094 91.535156 79.347656 91.535156 77.75 C 91.535156 77.078125 91.316406 76.570312 90.886719 76.242188 C 90.238281 75.75 89.160156 75.710938 87.671875 76.128906 C 87.105469 76.285156 86.601562 76.566406 86.171875 76.96875 C 85.738281 77.371094 85.421875 77.851562 85.21875 78.410156 C 85.023438 78.96875 84.839844 79.53125 84.675781 80.097656 C 84.511719 80.664062 84.363281 81.238281 84.234375 81.816406 C 84.105469 82.390625 83.992188 82.972656 83.894531 83.554688 C 83.800781 84.136719 83.722656 84.722656 83.660156 85.3125 C 83.601562 85.902344 83.558594 86.492188 83.53125 87.082031 C 83.503906 87.671875 83.496094 88.261719 83.507812 88.855469 C 83.515625 89.445312 83.542969 90.035156 83.589844 90.625 C 83.632812 91.214844 83.695312 91.804688 83.773438 92.390625 C 83.855469 92.976562 83.953125 93.558594 84.066406 94.136719 C 84.179688 94.71875 84.3125 95.292969 84.460938 95.867188 C 84.609375 96.4375 84.773438 97.007812 84.957031 97.570312 C 85.140625 98.128906 85.339844 98.6875 85.554688 99.238281 C 85.769531 99.789062 86 100.332031 86.25 100.867188 C 86.496094 101.402344 86.761719 101.929688 87.039062 102.453125 C 87.320312 102.972656 87.613281 103.484375 87.925781 103.984375 C 88.234375 104.488281 88.558594 104.980469 88.898438 105.464844 C 89.238281 105.949219 89.589844 106.421875 89.957031 106.882812 C 90.324219 107.34375 90.707031 107.792969 91.101562 108.234375 C 91.496094 108.671875 91.902344 109.097656 92.320312 109.511719 C 92.742188 109.925781 93.171875 110.328125 93.617188 110.71875 C 94.058594 111.105469 94.511719 111.480469 94.980469 111.839844 C 95.445312 112.203125 95.921875 112.546875 96.40625 112.882812 C 96.894531 113.214844 97.390625 113.53125 97.894531 113.832031 C 98.402344 114.136719 98.914062 114.421875 99.4375 114.695312 C 99.960938 114.964844 100.488281 115.222656 101.027344 115.460938 C 101.566406 115.699219 102.109375 115.921875 102.660156 116.128906 C 103.210938 116.335938 103.769531 116.527344 104.328125 116.699219 C 104.890625 116.875 105.460938 117.03125 106.03125 117.167969 C 106.601562 117.308594 107.175781 117.429688 107.757812 117.535156 C 108.335938 117.636719 108.917969 117.726562 109.5 117.792969 C 110.085938 117.863281 110.667969 117.914062 111.257812 117.949219 C 111.84375 117.984375 112.429688 118 113.019531 118 L 113.070312 118 C 114.042969 117.996094 115.015625 117.949219 115.980469 117.847656 C 116.949219 117.75 117.910156 117.605469 118.863281 117.410156 C 119.816406 117.21875 120.757812 116.976562 121.6875 116.691406 C 122.617188 116.402344 123.53125 116.070312 124.425781 115.691406 C 125.324219 115.3125 126.199219 114.890625 127.054688 114.425781 C 127.910156 113.960938 128.738281 113.453125 129.546875 112.90625 C 130.351562 112.359375 131.128906 111.773438 131.875 111.148438 C 132.621094 110.523438 133.339844 109.859375 134.019531 109.164062 C 134.703125 108.46875 135.351562 107.738281 135.960938 106.980469 C 136.574219 106.21875 137.144531 105.429688 137.679688 104.613281 C 138.210938 103.792969 138.703125 102.953125 139.15625 102.085938 C 139.605469 101.21875 140.011719 100.332031 140.375 99.425781 C 140.738281 98.519531 141.058594 97.59375 141.332031 96.65625 C 141.601562 95.71875 141.828125 94.765625 142.007812 93.804688 C 142.1875 92.84375 142.320312 91.878906 142.402344 90.902344 C 142.488281 89.929688 142.523438 88.953125 142.511719 87.976562 C 142.398438 78.625 138.074219 70.078125 130.648438 64.523438 Z M 84.710938 93.542969 C 85.09375 93.398438 85.488281 93.285156 85.890625 93.199219 C 86.007812 93.175781 86.128906 93.152344 86.25 93.132812 L 86.4375 93.105469 L 86.449219 93.105469 L 86.582031 93.089844 C 86.820312 93.0625 87.066406 93.046875 87.308594 93.039062 C 87.554688 93.035156 87.816406 93.039062 88.074219 93.054688 C 88.195312 93.0625 88.3125 93.074219 88.433594 93.089844 L 88.578125 93.105469 L 88.636719 93.113281 L 88.734375 93.128906 C 89.222656 93.203125 89.699219 93.324219 90.167969 93.492188 L 90.316406 93.546875 L 90.390625 93.578125 C 90.488281 93.617188 90.585938 93.664062 90.683594 93.714844 C 90.863281 93.804688 91.039062 93.910156 91.207031 94.023438 C 91.246094 94.054688 91.289062 94.082031 91.324219 94.113281 L 91.386719 94.164062 C 91.472656 94.234375 91.550781 94.304688 91.625 94.382812 C 91.6875 94.441406 91.746094 94.507812 91.800781 94.578125 C 91.789062 94.566406 91.785156 94.558594 91.800781 94.589844 L 91.84375 94.652344 C 91.871094 94.695312 91.902344 94.738281 91.925781 94.785156 C 91.953125 94.828125 91.976562 94.875 92 94.921875 C 92.007812 94.9375 92.015625 94.953125 92.023438 94.96875 C 92.023438 94.972656 92.023438 94.976562 92.023438 94.980469 C 92.070312 95.070312 92.097656 95.167969 92.109375 95.269531 C 92.125 95.308594 92.132812 95.347656 92.136719 95.386719 L 92.136719 95.410156 C 92.136719 95.429688 92.136719 95.449219 92.136719 95.46875 C 92.140625 95.550781 92.140625 95.632812 92.136719 95.714844 C 92.136719 95.746094 92.105469 95.886719 92.136719 95.761719 C 92.128906 95.796875 92.125 95.832031 92.117188 95.863281 C 92.109375 95.945312 92.09375 96.027344 92.074219 96.105469 C 92.054688 96.171875 92.027344 96.234375 92.003906 96.300781 L 91.980469 96.351562 L 91.925781 96.464844 C 91.847656 96.613281 91.761719 96.753906 91.667969 96.890625 C 91.625 96.957031 91.582031 97.019531 91.535156 97.082031 C 91.511719 97.117188 91.484375 97.148438 91.460938 97.179688 C 91.445312 97.199219 91.433594 97.21875 91.417969 97.234375 C 91.207031 97.507812 90.984375 97.769531 90.769531 98.035156 C 90.339844 98.578125 89.90625 99.171875 89.785156 99.871094 C 89.710938 100.273438 89.734375 100.671875 89.863281 101.0625 C 90.007812 101.472656 90.222656 101.839844 90.503906 102.167969 C 90.769531 102.476562 91.046875 102.773438 91.339844 103.054688 C 91.488281 103.203125 91.628906 103.34375 91.769531 103.492188 C 91.832031 103.5625 91.898438 103.632812 91.957031 103.703125 L 92.058594 103.824219 L 92.09375 103.867188 L 92.121094 103.898438 C 92.246094 104.066406 92.359375 104.242188 92.460938 104.425781 C 92.503906 104.511719 92.550781 104.597656 92.589844 104.683594 C 92.613281 104.730469 92.632812 104.777344 92.652344 104.824219 L 92.691406 104.929688 C 92.765625 105.125 92.828125 105.328125 92.875 105.53125 C 92.898438 105.625 92.917969 105.722656 92.933594 105.820312 C 92.933594 105.867188 92.953125 105.917969 92.957031 105.96875 C 92.957031 106.007812 92.964844 106.042969 92.96875 106.082031 C 92.988281 106.285156 92.996094 106.492188 92.992188 106.695312 C 92.992188 106.796875 92.984375 106.902344 92.976562 106.996094 C 92.976562 107.054688 92.964844 107.109375 92.960938 107.164062 C 92.960938 107.164062 92.960938 107.203125 92.960938 107.214844 C 92.960938 107.226562 92.960938 107.246094 92.953125 107.261719 C 92.921875 107.464844 92.875 107.667969 92.820312 107.863281 C 92.789062 107.964844 92.757812 108.058594 92.726562 108.15625 L 92.664062 108.308594 L 92.625 108.398438 C 92.582031 108.484375 92.542969 108.566406 92.496094 108.652344 C 90.46875 106.585938 88.789062 104.265625 87.460938 101.691406 C 86.136719 99.113281 85.21875 96.398438 84.710938 93.542969 Z M 133.136719 106.121094 Z M 133.339844 107.773438 L 133.351562 107.800781 C 133.347656 107.792969 133.34375 107.78125 133.339844 107.773438 Z M 133.71875 108.429688 L 133.671875 108.363281 C 133.636719 108.316406 133.601562 108.265625 133.570312 108.210938 C 133.507812 108.109375 133.449219 108.007812 133.398438 107.898438 L 133.359375 107.8125 C 133.332031 107.75 133.3125 107.691406 133.289062 107.628906 C 133.25 107.515625 133.21875 107.402344 133.191406 107.285156 C 133.179688 107.230469 133.167969 107.175781 133.160156 107.121094 C 133.160156 107.089844 133.148438 107.058594 133.144531 107.027344 C 133.140625 106.996094 133.144531 107.003906 133.144531 107 C 133.128906 106.878906 133.121094 106.757812 133.121094 106.640625 C 133.117188 106.519531 133.121094 106.398438 133.132812 106.28125 C 133.132812 106.25 133.132812 106.214844 133.140625 106.183594 L 133.140625 106.167969 C 133.160156 106.109375 133.171875 106.042969 133.171875 105.980469 C 133.199219 105.863281 133.226562 105.746094 133.261719 105.632812 C 133.277344 105.578125 133.296875 105.527344 133.316406 105.480469 C 133.335938 105.433594 133.339844 105.421875 133.351562 105.390625 C 133.359375 105.359375 133.339844 105.414062 133.339844 105.414062 C 133.34375 105.394531 133.351562 105.378906 133.363281 105.363281 C 133.410156 105.253906 133.464844 105.148438 133.527344 105.042969 C 133.558594 104.992188 133.589844 104.941406 133.625 104.894531 L 133.675781 104.820312 L 133.710938 104.773438 C 133.871094 104.570312 134.046875 104.382812 134.242188 104.210938 C 134.339844 104.125 134.4375 104.042969 134.542969 103.960938 L 134.5625 103.945312 L 134.644531 103.882812 L 134.804688 103.765625 C 135.234375 103.464844 135.679688 103.183594 136.105469 102.871094 C 136.46875 102.601562 136.8125 102.308594 137.136719 101.996094 C 137.851562 101.296875 138.523438 100.558594 139.152344 99.78125 C 139.375 99.515625 139.589844 99.246094 139.804688 98.976562 C 138.398438 102.53125 136.371094 105.683594 133.71875 108.425781 Z M 133.71875 108.429688 " fill-opacity="1" fill-rule="nonzero"/></g><path fill="rgb(0%, 23.529053%, 29.40979%)" d="M 111.992188 81.882812 C 112.207031 82.554688 112.621094 83.066406 113.230469 83.414062 C 113.921875 83.78125 114.640625 83.847656 115.390625 83.609375 C 116.089844 83.394531 116.714844 83.042969 117.261719 82.554688 C 117.386719 82.683594 117.511719 82.816406 117.644531 82.9375 C 118.199219 83.488281 118.855469 83.847656 119.617188 84.019531 C 120.449219 84.1875 121.296875 84.097656 122.136719 84.039062 C 122.894531 83.972656 123.652344 84.003906 124.402344 84.132812 C 125.855469 84.414062 127.207031 85.097656 128.175781 86.234375 C 128.644531 86.769531 128.988281 87.375 129.214844 88.050781 C 129.4375 88.726562 129.527344 89.417969 129.476562 90.128906 C 129.449219 90.453125 129.382812 90.773438 129.289062 91.082031 C 129.195312 91.386719 129.074219 91.675781 128.925781 91.957031 C 128.613281 92.539062 128.21875 93.058594 127.738281 93.511719 C 127.25 93.984375 126.714844 94.386719 126.128906 94.71875 C 125.5 95.078125 124.84375 95.363281 124.152344 95.570312 C 122.523438 96.078125 120.820312 96.265625 119.132812 96.464844 C 117.550781 96.652344 115.964844 96.851562 114.4375 97.324219 C 112.980469 97.777344 111.582031 98.464844 110.476562 99.539062 C 109.324219 100.652344 108.574219 102.121094 107.390625 103.210938 C 106.875 103.710938 106.277344 104.070312 105.59375 104.289062 C 105.257812 104.390625 104.917969 104.421875 104.574219 104.390625 C 104.542969 104.390625 104.511719 104.386719 104.484375 104.378906 L 104.359375 104.355469 C 104.273438 104.335938 104.183594 104.3125 104.101562 104.28125 C 103.96875 104.222656 103.847656 104.148438 103.742188 104.050781 C 103.6875 104 103.644531 103.945312 103.609375 103.882812 C 103.570312 103.824219 103.539062 103.761719 103.511719 103.699219 C 103.480469 103.617188 103.453125 103.53125 103.4375 103.445312 C 103.417969 103.375 103.40625 103.304688 103.402344 103.234375 C 103.386719 103.054688 103.386719 102.878906 103.402344 102.703125 C 103.402344 102.664062 103.410156 102.628906 103.414062 102.589844 C 103.414062 102.578125 103.414062 102.539062 103.425781 102.527344 C 103.4375 102.449219 103.453125 102.375 103.46875 102.296875 C 103.503906 102.144531 103.546875 101.992188 103.597656 101.84375 C 103.621094 101.773438 103.648438 101.695312 103.675781 101.628906 C 103.679688 101.621094 103.679688 101.613281 103.675781 101.605469 L 103.6875 101.585938 C 103.703125 101.546875 103.722656 101.507812 103.738281 101.472656 C 103.871094 101.1875 104.023438 100.917969 104.199219 100.660156 C 104.285156 100.527344 104.375 100.398438 104.472656 100.269531 C 104.550781 100.160156 104.621094 100.066406 104.734375 99.933594 C 104.941406 99.679688 105.15625 99.429688 105.371094 99.179688 C 105.808594 98.679688 106.253906 98.191406 106.664062 97.671875 C 107.585938 96.5625 108.144531 95.292969 108.34375 93.863281 C 108.570312 92.40625 108.503906 90.925781 108.445312 89.457031 C 108.417969 88.722656 108.394531 87.992188 108.40625 87.257812 C 108.417969 86.898438 108.433594 86.539062 108.46875 86.179688 C 108.5 85.84375 108.546875 85.511719 108.617188 85.183594 C 108.742188 84.523438 108.957031 83.894531 109.265625 83.296875 C 109.3125 83.210938 109.324219 83.117188 109.296875 83.019531 C 109.273438 82.925781 109.21875 82.851562 109.132812 82.796875 C 109.046875 82.746094 108.957031 82.734375 108.859375 82.761719 C 108.761719 82.785156 108.6875 82.84375 108.636719 82.929688 C 107.933594 84.277344 107.714844 85.792969 107.6875 87.300781 C 107.65625 88.808594 107.800781 90.320312 107.78125 91.828125 C 107.785156 92.554688 107.726562 93.277344 107.605469 93.996094 C 107.476562 94.695312 107.25 95.363281 106.921875 95.996094 C 106.289062 97.1875 105.335938 98.097656 104.457031 99.140625 C 103.578125 100.183594 102.792969 101.335938 102.675781 102.730469 C 102.605469 103.53125 102.84375 104.402344 103.574219 104.824219 C 104.269531 105.226562 105.179688 105.1875 105.921875 104.945312 C 107.515625 104.421875 108.570312 103.074219 109.539062 101.777344 C 110.015625 101.097656 110.550781 100.46875 111.144531 99.894531 C 111.707031 99.390625 112.328125 98.976562 113.003906 98.652344 C 114.355469 97.984375 115.90625 97.632812 117.417969 97.40625 C 119.164062 97.144531 120.929688 97.027344 122.667969 96.683594 C 124.238281 96.375 125.785156 95.863281 127.113281 94.949219 C 128.3125 94.125 129.316406 93.023438 129.851562 91.65625 C 130.417969 90.210938 130.289062 88.605469 129.652344 87.207031 C 128.957031 85.730469 127.867188 84.664062 126.382812 84 C 125.628906 83.660156 124.84375 83.441406 124.023438 83.339844 C 123.207031 83.234375 122.398438 83.289062 121.578125 83.347656 C 121.148438 83.382812 120.71875 83.394531 120.289062 83.371094 C 120.097656 83.363281 119.90625 83.335938 119.714844 83.292969 C 119.625 83.273438 119.535156 83.25 119.445312 83.21875 L 119.292969 83.167969 L 119.195312 83.128906 C 118.65625 82.867188 118.191406 82.511719 117.800781 82.058594 C 118.257812 81.605469 118.691406 81.121094 119.128906 80.667969 C 119.632812 80.113281 120.210938 79.664062 120.871094 79.3125 C 120.953125 79.257812 121.011719 79.183594 121.035156 79.089844 C 121.0625 78.992188 121.050781 78.898438 121 78.8125 C 120.949219 78.726562 120.875 78.671875 120.777344 78.644531 C 120.679688 78.621094 120.589844 78.632812 120.5 78.679688 C 119.195312 79.332031 118.339844 80.53125 117.320312 81.53125 C 116.9375 81.0625 116.511719 80.636719 116.039062 80.257812 C 115.492188 79.851562 114.882812 79.609375 114.207031 79.527344 C 113.539062 79.425781 112.953125 79.601562 112.449219 80.054688 C 112.207031 80.292969 112.046875 80.578125 111.964844 80.90625 C 111.882812 81.234375 111.890625 81.558594 111.992188 81.882812 Z M 112.980469 82.242188 C 112.949219 82.207031 112.972656 82.238281 112.980469 82.242188 Z M 112.703125 80.933594 Z M 112.640625 81.179688 C 112.640625 81.199219 112.640625 81.203125 112.640625 81.179688 Z M 112.640625 81.21875 C 112.640625 81.203125 112.640625 81.191406 112.640625 81.175781 C 112.652344 81.113281 112.667969 81.050781 112.6875 80.988281 C 112.6875 80.972656 112.699219 80.953125 112.707031 80.933594 C 112.710938 80.914062 112.738281 80.871094 112.753906 80.835938 L 112.808594 80.75 L 112.84375 80.699219 C 112.886719 80.644531 112.929688 80.597656 112.980469 80.550781 C 113 80.535156 113.015625 80.519531 113.035156 80.503906 L 113.078125 80.472656 C 113.136719 80.429688 113.199219 80.394531 113.265625 80.363281 C 113.277344 80.363281 113.304688 80.347656 113.3125 80.34375 L 113.375 80.320312 C 113.445312 80.296875 113.515625 80.277344 113.585938 80.265625 L 113.65625 80.253906 L 113.710938 80.253906 C 113.785156 80.246094 113.863281 80.242188 113.9375 80.246094 C 114.003906 80.246094 114.070312 80.246094 114.136719 80.253906 L 114.195312 80.253906 L 114.308594 80.273438 C 114.457031 80.304688 114.601562 80.34375 114.746094 80.390625 C 114.808594 80.414062 114.867188 80.433594 114.929688 80.460938 L 115.003906 80.492188 L 115.117188 80.542969 C 115.253906 80.613281 115.382812 80.691406 115.511719 80.777344 C 115.566406 80.8125 115.617188 80.847656 115.671875 80.890625 L 115.730469 80.933594 L 115.820312 81.015625 C 115.949219 81.132812 116.074219 81.253906 116.199219 81.382812 C 116.394531 81.589844 116.585938 81.804688 116.773438 82.015625 C 116.324219 82.410156 115.820312 82.699219 115.253906 82.890625 C 114.921875 82.996094 114.578125 83.035156 114.226562 83.003906 L 114.1875 83.003906 L 114.085938 82.984375 C 114.007812 82.964844 113.929688 82.941406 113.855469 82.914062 L 113.796875 82.894531 L 113.71875 82.855469 C 113.648438 82.820312 113.574219 82.78125 113.507812 82.738281 C 113.453125 82.703125 113.398438 82.664062 113.34375 82.625 C 113.335938 82.613281 113.292969 82.582031 113.285156 82.574219 C 113.253906 82.546875 113.226562 82.519531 113.195312 82.492188 C 113.144531 82.445312 113.09375 82.394531 113.046875 82.339844 C 113.019531 82.3125 112.996094 82.28125 112.972656 82.253906 L 112.933594 82.199219 C 112.894531 82.140625 112.859375 82.082031 112.824219 82.023438 C 112.804688 81.988281 112.785156 81.957031 112.769531 81.921875 C 112.769531 81.910156 112.746094 81.871094 112.738281 81.855469 C 112.691406 81.734375 112.65625 81.609375 112.632812 81.476562 C 112.632812 81.464844 112.632812 81.445312 112.632812 81.433594 C 112.632812 81.417969 112.632812 81.367188 112.632812 81.335938 C 112.632812 81.304688 112.636719 81.253906 112.636719 81.21875 Z M 112.640625 81.21875 " fill-opacity="1" fill-rule="nonzero"/><path fill="rgb(0%, 23.529053%, 29.40979%)" d="M 125.652344 111.269531 C 125.746094 111.269531 125.84375 111.269531 125.933594 111.269531 C 126.011719 111.265625 126.089844 111.273438 126.167969 111.285156 L 126.1875 111.285156 L 126.238281 111.292969 C 126.289062 111.304688 126.335938 111.316406 126.386719 111.328125 C 126.425781 111.339844 126.464844 111.351562 126.503906 111.367188 L 126.519531 111.367188 L 126.550781 111.382812 C 126.582031 111.398438 126.617188 111.417969 126.652344 111.4375 L 126.699219 111.46875 C 126.726562 111.492188 126.753906 111.519531 126.78125 111.546875 L 126.8125 111.578125 C 126.832031 111.609375 126.851562 111.640625 126.867188 111.671875 C 126.882812 111.703125 126.886719 111.703125 126.890625 111.71875 C 126.894531 111.722656 126.894531 111.726562 126.890625 111.730469 C 126.921875 111.828125 126.980469 111.898438 127.066406 111.949219 C 127.152344 112 127.246094 112.011719 127.34375 111.984375 C 127.4375 111.957031 127.511719 111.898438 127.5625 111.8125 C 127.609375 111.722656 127.621094 111.632812 127.59375 111.535156 C 127.441406 111.105469 127.152344 110.8125 126.722656 110.660156 C 126.347656 110.527344 125.964844 110.484375 125.570312 110.527344 C 125.167969 110.578125 124.773438 110.65625 124.382812 110.761719 C 124.289062 110.785156 124.195312 110.804688 124.101562 110.820312 C 124.054688 110.832031 124.003906 110.839844 123.957031 110.84375 L 123.898438 110.855469 L 123.851562 110.855469 C 123.660156 110.886719 123.464844 110.894531 123.269531 110.886719 L 123.207031 110.886719 C 123.164062 110.878906 123.125 110.871094 123.082031 110.859375 C 123.039062 110.847656 123 110.835938 122.957031 110.820312 L 122.9375 110.8125 L 122.917969 110.8125 L 122.886719 110.792969 C 122.847656 110.773438 122.8125 110.746094 122.777344 110.726562 L 122.738281 110.691406 C 122.707031 110.664062 122.679688 110.628906 122.648438 110.601562 L 122.597656 110.519531 C 122.582031 110.492188 122.566406 110.460938 122.550781 110.429688 L 122.550781 110.421875 C 122.527344 110.367188 122.507812 110.308594 122.496094 110.253906 C 122.464844 110.140625 122.441406 110.023438 122.421875 109.90625 C 122.390625 109.679688 122.339844 109.453125 122.269531 109.234375 C 121.964844 108.425781 121.417969 107.863281 120.621094 107.539062 C 119.820312 107.191406 119 107.117188 118.152344 107.324219 C 117.191406 107.558594 116.34375 108.117188 115.601562 108.769531 C 114.890625 109.398438 114.300781 110.136719 113.671875 110.847656 C 113.363281 111.203125 113.035156 111.535156 112.683594 111.847656 L 112.558594 111.953125 L 112.488281 112.007812 L 112.476562 112.015625 C 112.378906 112.089844 112.28125 112.167969 112.175781 112.226562 C 111.976562 112.355469 111.769531 112.46875 111.550781 112.566406 L 111.542969 112.566406 L 111.519531 112.574219 L 111.433594 112.605469 L 111.242188 112.671875 C 111.117188 112.714844 110.992188 112.75 110.863281 112.78125 C 110.601562 112.84375 110.339844 112.894531 110.074219 112.929688 C 109.5625 113.003906 109.054688 113.097656 108.546875 113.222656 C 107.703125 113.453125 106.839844 113.917969 106.382812 114.699219 C 106.269531 114.894531 106.1875 115.101562 106.136719 115.320312 C 106.109375 115.417969 106.121094 115.511719 106.171875 115.597656 C 106.222656 115.6875 106.292969 115.742188 106.390625 115.769531 C 106.488281 115.796875 106.578125 115.785156 106.667969 115.738281 C 106.753906 115.6875 106.8125 115.613281 106.835938 115.515625 C 106.859375 115.429688 106.882812 115.347656 106.914062 115.261719 C 106.914062 115.273438 106.945312 115.1875 106.957031 115.167969 C 106.984375 115.117188 107.011719 115.066406 107.042969 115.015625 C 107.066406 114.976562 107.09375 114.9375 107.121094 114.898438 L 107.167969 114.839844 C 107.234375 114.761719 107.304688 114.691406 107.378906 114.621094 C 107.417969 114.589844 107.453125 114.558594 107.492188 114.527344 L 107.519531 114.503906 L 107.558594 114.472656 C 107.644531 114.414062 107.734375 114.355469 107.824219 114.304688 C 107.914062 114.25 108 114.207031 108.089844 114.164062 L 108.214844 114.105469 L 108.238281 114.09375 L 108.339844 114.058594 C 109.261719 113.707031 110.269531 113.699219 111.214844 113.4375 C 111.703125 113.304688 112.160156 113.097656 112.578125 112.820312 C 112.976562 112.550781 113.339844 112.242188 113.675781 111.898438 C 114.324219 111.242188 114.875 110.5 115.519531 109.839844 C 115.6875 109.667969 115.855469 109.5 116.03125 109.339844 C 116.113281 109.269531 116.191406 109.199219 116.273438 109.128906 L 116.40625 109.023438 L 116.46875 108.96875 L 116.488281 108.957031 L 116.503906 108.945312 C 116.871094 108.664062 117.261719 108.425781 117.683594 108.234375 L 117.722656 108.214844 L 117.777344 108.195312 L 117.929688 108.136719 C 118.039062 108.097656 118.148438 108.0625 118.261719 108.035156 C 118.375 108.003906 118.457031 107.984375 118.5625 107.96875 C 118.582031 107.96875 118.726562 107.929688 118.625 107.957031 C 118.679688 107.945312 118.734375 107.941406 118.789062 107.941406 C 118.96875 107.925781 119.152344 107.925781 119.335938 107.941406 L 119.472656 107.953125 L 119.484375 107.953125 L 119.539062 107.960938 C 119.640625 107.980469 119.738281 108 119.839844 108.023438 C 119.941406 108.050781 120.015625 108.074219 120.101562 108.101562 L 120.230469 108.148438 L 120.277344 108.167969 L 120.289062 108.167969 L 120.304688 108.175781 C 120.472656 108.253906 120.628906 108.34375 120.785156 108.445312 L 120.867188 108.507812 L 120.941406 108.5625 C 121.011719 108.625 121.082031 108.691406 121.148438 108.761719 C 121.179688 108.792969 121.207031 108.828125 121.238281 108.859375 L 121.269531 108.898438 C 121.320312 108.96875 121.367188 109.042969 121.414062 109.117188 C 121.449219 109.1875 121.484375 109.257812 121.515625 109.328125 C 121.515625 109.351562 121.542969 109.398438 121.550781 109.414062 C 121.566406 109.464844 121.582031 109.515625 121.597656 109.566406 C 121.65625 109.796875 121.683594 110.035156 121.734375 110.265625 C 121.8125 110.753906 122.0625 111.128906 122.484375 111.390625 C 123.210938 111.804688 124.132812 111.605469 124.898438 111.402344 C 125.078125 111.34375 125.257812 111.304688 125.445312 111.285156 C 125.339844 111.292969 125.484375 111.285156 125.507812 111.285156 Z M 112.488281 111.964844 Z M 122.519531 110.375 C 122.511719 110.359375 122.519531 110.367188 122.519531 110.375 Z M 122.917969 110.792969 L 122.949219 110.804688 C 122.949219 110.804688 122.929688 110.800781 122.917969 110.792969 Z M 123.226562 110.878906 L 123.257812 110.878906 C 123.246094 110.882812 123.238281 110.886719 123.226562 110.886719 Z M 123.226562 110.878906 " fill-opacity="1" fill-rule="nonzero"/><path fill="rgb(0%, 23.529053%, 29.40979%)" d="M 91.21875 98.644531 L 91.207031 98.660156 C 91.195312 98.671875 91.175781 98.710938 91.21875 98.644531 Z M 91.21875 98.644531 " fill-opacity="1" fill-rule="nonzero"/><path fill="rgb(0%, 23.529053%, 29.40979%)" d="M 91.464844 97.183594 C 91.402344 97.253906 91.449219 97.203125 91.464844 97.183594 Z M 91.464844 97.183594 " fill-opacity="1" fill-rule="nonzero"/><path fill="rgb(0%, 23.529053%, 29.40979%)" d="M 90.484375 100.109375 C 90.507812 100.027344 90.488281 100.082031 90.484375 100.109375 Z M 90.484375 100.109375 " fill-opacity="1" fill-rule="nonzero"/><path fill="rgb(0%, 23.529053%, 29.40979%)" d="M 116.269531 58.738281 L 116.28125 58.714844 Z M 116.269531 58.738281 " fill-opacity="1" fill-rule="nonzero"/><g clip-path="url(#id9)"><path fill="rgb(0%, 23.529053%, 29.40979%)" d="M 118.179688 70.917969 C 119.265625 72.695312 120.421875 74.433594 121.503906 76.21875 C 121.65625 76.472656 121.8125 76.726562 121.964844 76.984375 C 122 77.039062 122.042969 77.082031 122.097656 77.113281 C 122.15625 77.144531 122.214844 77.160156 122.277344 77.160156 C 122.34375 77.160156 122.402344 77.144531 122.457031 77.113281 C 122.515625 77.082031 122.558594 77.039062 122.59375 76.984375 C 123.664062 75.410156 124.636719 73.769531 125.507812 72.074219 C 125.925781 71.285156 126.335938 70.492188 126.75 69.703125 C 127.183594 68.882812 127.605469 68.070312 127.949219 67.214844 C 128.660156 65.488281 129.089844 63.699219 129.246094 61.839844 C 129.328125 60.953125 129.328125 60.070312 129.246094 59.183594 C 129.183594 58.4375 128.996094 57.722656 128.679688 57.039062 C 128.359375 56.382812 127.898438 55.847656 127.296875 55.433594 C 126.59375 54.960938 125.820312 54.6875 124.976562 54.605469 C 124.113281 54.507812 123.300781 54.664062 122.535156 55.066406 C 122.160156 55.277344 121.820312 55.53125 121.503906 55.820312 C 121.210938 56.085938 120.945312 56.371094 120.699219 56.683594 C 119.679688 57.980469 119.101562 59.621094 119.304688 61.285156 C 119.5 62.875 120.335938 64.53125 121.808594 65.277344 C 122.5 65.625 123.355469 65.804688 124.097656 65.503906 C 124.949219 65.164062 125.398438 64.363281 125.652344 63.515625 C 125.90625 62.667969 126 61.671875 125.695312 60.800781 C 125.558594 60.390625 125.34375 60.03125 125.042969 59.722656 C 124.746094 59.414062 124.394531 59.183594 123.992188 59.035156 C 123.609375 58.898438 123.214844 58.875 122.816406 58.957031 C 122.71875 58.984375 122.648438 59.042969 122.597656 59.128906 C 122.546875 59.21875 122.535156 59.3125 122.5625 59.410156 C 122.59375 59.503906 122.652344 59.578125 122.738281 59.628906 C 122.824219 59.675781 122.917969 59.691406 123.015625 59.664062 C 123.027344 59.664062 123.109375 59.652344 123.105469 59.648438 L 123.210938 59.648438 C 123.289062 59.648438 123.367188 59.652344 123.445312 59.660156 L 123.535156 59.675781 C 123.578125 59.683594 123.621094 59.695312 123.660156 59.707031 L 123.769531 59.742188 L 123.867188 59.777344 C 124.019531 59.84375 124.160156 59.929688 124.296875 60.03125 L 124.367188 60.085938 L 124.453125 60.164062 C 124.523438 60.230469 124.589844 60.300781 124.648438 60.375 L 124.6875 60.425781 L 124.695312 60.433594 C 124.71875 60.46875 124.742188 60.5 124.761719 60.53125 C 124.816406 60.613281 124.863281 60.695312 124.90625 60.78125 C 124.941406 60.847656 124.96875 60.917969 124.992188 60.988281 C 125.03125 61.09375 125.0625 61.199219 125.085938 61.304688 C 125.132812 61.488281 125.15625 61.675781 125.160156 61.863281 C 125.167969 62.074219 125.160156 62.285156 125.136719 62.496094 C 125.136719 62.515625 125.136719 62.535156 125.136719 62.554688 C 125.136719 62.558594 125.136719 62.566406 125.136719 62.570312 C 125.128906 62.621094 125.121094 62.675781 125.109375 62.722656 C 125.089844 62.824219 125.070312 62.925781 125.042969 63.03125 C 124.996094 63.230469 124.933594 63.425781 124.863281 63.617188 C 124.847656 63.664062 124.832031 63.710938 124.8125 63.757812 L 124.8125 63.765625 L 124.769531 63.828125 C 124.726562 63.921875 124.675781 64.015625 124.621094 64.105469 C 124.539062 64.261719 124.433594 64.402344 124.304688 64.523438 C 124.269531 64.554688 124.234375 64.585938 124.195312 64.617188 L 124.1875 64.617188 L 124.144531 64.648438 C 124.070312 64.699219 123.992188 64.746094 123.910156 64.785156 L 123.878906 64.800781 L 123.867188 64.800781 L 123.75 64.84375 C 123.664062 64.867188 123.578125 64.886719 123.492188 64.902344 L 123.445312 64.902344 C 123.402344 64.902344 123.359375 64.902344 123.316406 64.902344 C 123.226562 64.902344 123.136719 64.898438 123.046875 64.890625 L 122.972656 64.882812 L 122.867188 64.863281 C 122.78125 64.847656 122.695312 64.824219 122.613281 64.800781 C 122.527344 64.773438 122.441406 64.742188 122.359375 64.710938 L 122.339844 64.734375 L 122.296875 64.714844 C 122.257812 64.695312 122.214844 64.675781 122.175781 64.65625 C 122.015625 64.574219 121.859375 64.480469 121.710938 64.375 L 121.636719 64.316406 L 121.546875 64.246094 C 121.480469 64.1875 121.414062 64.125 121.351562 64.058594 C 121.21875 63.929688 121.097656 63.789062 120.980469 63.644531 L 120.972656 63.632812 L 120.929688 63.574219 L 120.851562 63.460938 C 120.796875 63.382812 120.746094 63.3125 120.699219 63.226562 C 120.601562 63.066406 120.515625 62.898438 120.4375 62.730469 L 120.386719 62.617188 L 120.355469 62.542969 C 120.320312 62.449219 120.289062 62.359375 120.253906 62.261719 C 120.195312 62.085938 120.144531 61.902344 120.105469 61.71875 C 120.085938 61.632812 120.070312 61.546875 120.054688 61.460938 C 120.046875 61.414062 120.042969 61.367188 120.035156 61.320312 C 120.035156 61.289062 120.035156 61.257812 120.023438 61.226562 C 120.003906 61.039062 119.992188 60.851562 119.992188 60.664062 C 119.988281 60.476562 119.996094 60.289062 120.015625 60.097656 L 120.03125 59.976562 L 120.03125 59.96875 L 120.039062 59.902344 C 120.054688 59.804688 120.070312 59.710938 120.089844 59.621094 C 120.128906 59.433594 120.175781 59.25 120.230469 59.066406 C 120.257812 58.984375 120.289062 58.898438 120.316406 58.816406 C 120.332031 58.769531 120.351562 58.726562 120.367188 58.683594 C 120.375 58.660156 120.386719 58.636719 120.394531 58.617188 L 120.394531 58.589844 C 120.542969 58.238281 120.722656 57.902344 120.933594 57.585938 C 120.980469 57.511719 121.03125 57.4375 121.082031 57.367188 C 121.109375 57.328125 121.140625 57.289062 121.167969 57.25 L 121.230469 57.171875 C 121.351562 57.019531 121.476562 56.878906 121.605469 56.738281 C 121.738281 56.601562 121.867188 56.476562 122.003906 56.351562 C 122.074219 56.289062 122.152344 56.226562 122.21875 56.164062 L 122.328125 56.078125 L 122.347656 56.0625 L 122.398438 56.027344 C 122.550781 55.90625 122.714844 55.800781 122.886719 55.707031 C 122.96875 55.664062 123.050781 55.625 123.132812 55.585938 C 123.148438 55.585938 123.199219 55.5625 123.207031 55.554688 L 123.355469 55.503906 C 123.539062 55.441406 123.722656 55.394531 123.910156 55.363281 L 124.007812 55.351562 C 124.046875 55.34375 124.089844 55.339844 124.132812 55.335938 C 124.226562 55.328125 124.324219 55.324219 124.417969 55.320312 C 125.171875 55.308594 125.882812 55.476562 126.550781 55.835938 C 126.699219 55.914062 126.84375 56.007812 126.984375 56.105469 L 127.066406 56.167969 L 127.113281 56.207031 C 127.183594 56.265625 127.246094 56.320312 127.308594 56.378906 C 127.417969 56.488281 127.523438 56.601562 127.621094 56.722656 C 127.632812 56.734375 127.644531 56.75 127.652344 56.765625 C 127.671875 56.792969 127.695312 56.820312 127.714844 56.847656 C 127.761719 56.917969 127.808594 56.988281 127.855469 57.058594 C 127.9375 57.195312 128.011719 57.335938 128.082031 57.480469 C 128.097656 57.515625 128.113281 57.554688 128.128906 57.589844 C 128.136719 57.601562 128.140625 57.613281 128.144531 57.625 C 128.175781 57.707031 128.207031 57.789062 128.234375 57.867188 C 128.339844 58.1875 128.421875 58.515625 128.472656 58.847656 C 128.472656 58.886719 128.484375 58.921875 128.492188 58.960938 C 128.492188 58.972656 128.492188 58.988281 128.492188 59 C 128.492188 59.007812 128.492188 59.019531 128.492188 59.027344 C 128.5 59.113281 128.511719 59.199219 128.519531 59.289062 C 128.539062 59.484375 128.546875 59.683594 128.554688 59.878906 C 128.570312 60.316406 128.570312 60.753906 128.554688 61.1875 C 128.523438 62.042969 128.417969 62.890625 128.246094 63.730469 C 128.070312 64.589844 127.835938 65.433594 127.539062 66.257812 C 127.253906 67.0625 126.910156 67.839844 126.511719 68.59375 C 126.121094 69.332031 125.726562 70.070312 125.339844 70.8125 C 124.515625 72.398438 123.671875 73.980469 122.710938 75.488281 C 122.574219 75.703125 122.429688 75.921875 122.285156 76.136719 C 121.28125 74.476562 120.230469 72.851562 119.203125 71.210938 C 118.738281 70.464844 118.28125 69.714844 117.851562 68.949219 C 117.652344 68.585938 117.457031 68.21875 117.277344 67.84375 C 117.1875 67.664062 117.101562 67.484375 117.019531 67.300781 L 116.910156 67.058594 L 116.839844 66.894531 C 116.839844 66.886719 116.8125 66.824219 116.808594 66.816406 C 116.511719 66.089844 116.273438 65.347656 116.09375 64.582031 C 116 64.191406 115.925781 63.792969 115.867188 63.390625 L 115.847656 63.265625 C 115.847656 63.265625 115.835938 63.183594 115.835938 63.164062 C 115.820312 63.054688 115.808594 62.945312 115.796875 62.835938 C 115.777344 62.621094 115.757812 62.410156 115.746094 62.191406 C 115.714844 61.753906 115.714844 61.316406 115.746094 60.878906 C 115.746094 60.777344 115.765625 60.675781 115.777344 60.578125 C 115.777344 60.558594 115.789062 60.484375 115.777344 60.5625 L 115.785156 60.496094 C 115.792969 60.433594 115.804688 60.371094 115.816406 60.304688 C 115.855469 60.09375 115.902344 59.882812 115.957031 59.675781 C 116.015625 59.46875 116.078125 59.261719 116.152344 59.058594 C 116.1875 58.957031 116.230469 58.855469 116.269531 58.757812 C 116.273438 58.75 116.277344 58.742188 116.28125 58.734375 C 116.289062 58.71875 116.292969 58.703125 116.300781 58.6875 C 116.324219 58.628906 116.347656 58.578125 116.375 58.523438 C 116.558594 58.128906 116.769531 57.753906 117.015625 57.394531 C 117.078125 57.304688 117.136719 57.21875 117.203125 57.128906 L 117.242188 57.078125 L 117.273438 57.035156 C 117.285156 57.019531 117.304688 56.996094 117.304688 56.996094 L 117.363281 56.921875 C 117.5 56.753906 117.644531 56.589844 117.792969 56.433594 C 117.941406 56.28125 118.089844 56.132812 118.257812 55.980469 C 118.335938 55.90625 118.417969 55.839844 118.5 55.769531 L 118.613281 55.675781 L 118.707031 55.605469 C 119.050781 55.34375 119.414062 55.113281 119.796875 54.917969 C 119.894531 54.867188 119.992188 54.820312 120.085938 54.773438 L 120.238281 54.710938 L 120.253906 54.710938 L 120.328125 54.679688 C 120.527344 54.597656 120.734375 54.53125 120.9375 54.464844 C 121.144531 54.402344 121.355469 54.351562 121.566406 54.316406 C 121.664062 54.289062 121.738281 54.230469 121.785156 54.140625 C 121.835938 54.054688 121.847656 53.960938 121.820312 53.863281 C 121.792969 53.765625 121.734375 53.691406 121.644531 53.644531 C 121.558594 53.59375 121.46875 53.582031 121.371094 53.609375 C 119.542969 54 118.042969 54.925781 116.871094 56.390625 C 115.71875 57.800781 115 59.578125 114.992188 61.417969 C 114.992188 63.132812 115.289062 64.796875 115.878906 66.40625 C 116.464844 67.980469 117.296875 69.472656 118.179688 70.917969 Z M 124.679688 60.410156 Z M 124.679688 60.410156 " fill-opacity="1" fill-rule="nonzero"/></g><g fill="rgb(87.449646%, 61.959839%, 59.609985%)" fill-opacity="1"><g transform="translate(2.565037, 144.368478)"><g><path d="M 9.183594 0 L 9.183594 -15.40625 L 13.976562 -15.40625 L 13.976562 -19.230469 L 0.539062 -19.230469 L 0.539062 -15.40625 L 5.332031 -15.40625 L 5.332031 0 Z M 9.183594 0 "/></g></g></g><g fill="rgb(87.449646%, 61.959839%, 59.609985%)" fill-opacity="1"><g transform="translate(17.2941, 144.368478)"><g><path d="M 11.742188 0 L 16.105469 0 L 11.636719 -7.945312 C 17.292969 -9.589844 16.617188 -19.257812 9.75 -19.257812 L 2.15625 -19.257812 L 2.15625 0 L 6.007812 0 L 6.007812 -7.351562 L 7.863281 -7.351562 Z M 6.007812 -11.097656 L 6.007812 -15.40625 L 9.398438 -15.40625 C 12.011719 -15.40625 12.011719 -11.097656 9.398438 -11.097656 Z M 6.007812 -11.097656 "/></g></g></g><g fill="rgb(87.449646%, 61.959839%, 59.609985%)" fill-opacity="1"><g transform="translate(33.800339, 144.368478)"><g><path d="M 6.007812 0 L 6.007812 -19.257812 L 2.15625 -19.257812 L 2.15625 0 Z M 6.007812 0 "/></g></g></g><g fill="rgb(87.449646%, 61.959839%, 59.609985%)" fill-opacity="1"><g transform="translate(41.98614, 144.368478)"><g><path d="M 6.007812 0 L 6.007812 -7.351562 L 9.722656 -7.351562 C 17.183594 -7.351562 17.210938 -19.230469 9.722656 -19.230469 L 2.15625 -19.230469 L 2.15625 0 Z M 6.007812 -11.097656 L 6.007812 -15.40625 L 9.398438 -15.40625 C 11.984375 -15.40625 11.984375 -11.097656 9.398438 -11.097656 Z M 6.007812 -11.097656 "/></g></g></g><g fill="rgb(87.449646%, 61.959839%, 59.609985%)" fill-opacity="1"><g transform="translate(58.223118, 144.368478)"><g/></g></g><g fill="rgb(87.449646%, 61.959839%, 59.609985%)" fill-opacity="1"><g transform="translate(65.870385, 144.368478)"><g><path d="M 14.410156 -14.785156 L 14.867188 -18.746094 C 13.707031 -19.257812 12.417969 -19.5 11.070312 -19.5 C -1.964844 -19.5 -1.992188 0.0546875 11.070312 0.0546875 C 12.417969 0.0546875 14.113281 -0.269531 15.296875 -0.753906 L 14.785156 -4.738281 C 14.058594 -4.363281 12.738281 -3.878906 11.070312 -3.878906 C 3.449219 -3.878906 3.449219 -15.621094 11.070312 -15.621094 C 12.738281 -15.621094 13.683594 -15.164062 14.410156 -14.785156 Z M 14.410156 -14.785156 "/></g></g></g><g fill="rgb(87.449646%, 61.959839%, 59.609985%)" fill-opacity="1"><g transform="translate(82.080427, 144.368478)"><g><path d="M 11.417969 0.269531 C 24.671875 0.269531 24.671875 -19.582031 11.417969 -19.582031 C -1.832031 -19.582031 -1.832031 0.269531 11.417969 0.269531 Z M 11.417969 -3.714844 C 3.714844 -3.714844 3.714844 -15.621094 11.417969 -15.621094 C 19.121094 -15.621094 19.121094 -3.714844 11.417969 -3.714844 Z M 11.417969 -3.714844 "/></g></g></g><g fill="rgb(87.449646%, 61.959839%, 59.609985%)" fill-opacity="1"><g transform="translate(104.88759, 144.368478)"><g><path d="M 15.972656 -6.707031 L 15.972656 -19.257812 L 12.148438 -19.257812 L 12.148438 -6.734375 C 12.148438 -2.691406 5.898438 -2.691406 5.898438 -6.734375 L 5.898438 -19.257812 L 2.046875 -19.257812 L 2.046875 -6.707031 C 2.046875 2.449219 15.972656 2.449219 15.972656 -6.707031 Z M 15.972656 -6.707031 "/></g></g></g><g fill="rgb(87.449646%, 61.959839%, 59.609985%)" fill-opacity="1"><g transform="translate(122.955595, 144.368478)"><g><path d="M 6.007812 -10.476562 L 15.757812 0.402344 L 16.78125 0.402344 L 16.78125 -19.230469 L 12.902344 -19.230469 L 12.902344 -8.347656 L 3.179688 -19.660156 L 2.15625 -19.660156 L 2.15625 0 L 6.007812 0 Z M 6.007812 -10.476562 "/></g></g></g><g fill="rgb(87.449646%, 61.959839%, 59.609985%)" fill-opacity="1"><g transform="translate(141.912195, 144.368478)"><g><path d="M 1.265625 -1.238281 C 3.878906 0.109375 6.277344 0.242188 7.351562 0.160156 C 10.960938 -0.0273438 13.171875 -2.476562 13.171875 -5.683594 C 13.171875 -8.753906 10.585938 -10.476562 7.59375 -11.582031 C 6.492188 -11.957031 5.546875 -12.441406 5.441406 -13.519531 C 5.359375 -14.597656 5.980469 -15.59375 7.351562 -15.675781 C 7.945312 -15.703125 9.15625 -15.730469 11.285156 -14.867188 L 11.769531 -18.582031 C 9.292969 -19.445312 7.972656 -19.445312 6.976562 -19.390625 C 3.769531 -19.230469 1.535156 -16.753906 1.535156 -13.519531 C 1.535156 -10.289062 4.226562 -8.753906 7.246094 -7.648438 C 8.324219 -7.273438 9.15625 -6.789062 9.238281 -5.683594 C 9.347656 -4.632812 8.375 -3.824219 7.246094 -3.742188 C 6.355469 -3.664062 3.960938 -3.714844 1.75 -5.277344 Z M 1.265625 -1.238281 "/></g></g></g><g fill="rgb(87.449646%, 61.959839%, 59.609985%)" fill-opacity="1"><g transform="translate(156.156573, 144.368478)"><g><path d="M 12.121094 0 L 12.121094 -3.851562 L 6.007812 -3.851562 L 6.007812 -7.703125 L 11.070312 -7.703125 L 11.070312 -11.554688 L 6.007812 -11.554688 L 6.007812 -15.40625 L 11.796875 -15.40625 L 11.796875 -19.257812 L 2.15625 -19.257812 L 2.15625 0 Z M 12.121094 0 "/></g></g></g><g fill="rgb(87.449646%, 61.959839%, 59.609985%)" fill-opacity="1"><g transform="translate(169.727779, 144.368478)"><g><path d="M 2.15625 -19.257812 L 2.15625 0 L 12.121094 0 L 12.121094 -3.851562 L 6.007812 -3.851562 L 6.007812 -19.257812 Z M 2.15625 -19.257812 "/></g></g></g><g fill="rgb(87.449646%, 61.959839%, 59.609985%)" fill-opacity="1"><g transform="translate(183.002787, 144.368478)"><g><path d="M 11.417969 0.269531 C 24.671875 0.269531 24.671875 -19.582031 11.417969 -19.582031 C -1.832031 -19.582031 -1.832031 0.269531 11.417969 0.269531 Z M 11.417969 -3.714844 C 3.714844 -3.714844 3.714844 -15.621094 11.417969 -15.621094 C 19.121094 -15.621094 19.121094 -3.714844 11.417969 -3.714844 Z M 11.417969 -3.714844 "/></g></g></g><g fill="rgb(87.449646%, 61.959839%, 59.609985%)" fill-opacity="1"><g transform="translate(205.80995, 144.368478)"><g><path d="M 11.742188 0 L 16.105469 0 L 11.636719 -7.945312 C 17.292969 -9.589844 16.617188 -19.257812 9.75 -19.257812 L 2.15625 -19.257812 L 2.15625 0 L 6.007812 0 L 6.007812 -7.351562 L 7.863281 -7.351562 Z M 6.007812 -11.097656 L 6.007812 -15.40625 L 9.398438 -15.40625 C 12.011719 -15.40625 12.011719 -11.097656 9.398438 -11.097656 Z M 6.007812 -11.097656 "/></g></g></g><g fill="rgb(68.629456%, 51.759338%, 50.19989%)" fill-opacity="1"><g transform="translate(52.857487, 167.33024)"><g><path d="M 2.03125 0 C 1.726562 0 1.472656 -0.0976562 1.265625 -0.296875 C 1.054688 -0.503906 0.953125 -0.742188 0.953125 -1.015625 L 0.953125 -8.46875 C 0.953125 -8.738281 1.054688 -8.972656 1.265625 -9.171875 C 1.472656 -9.378906 1.726562 -9.484375 2.03125 -9.484375 L 7.25 -9.484375 C 7.59375 -9.484375 7.859375 -9.390625 8.046875 -9.203125 C 8.234375 -9.023438 8.328125 -8.800781 8.328125 -8.53125 C 8.328125 -8.257812 8.234375 -8.035156 8.046875 -7.859375 C 7.859375 -7.679688 7.59375 -7.59375 7.25 -7.59375 L 3.109375 -7.59375 L 3.109375 -5.6875 L 6.03125 -5.6875 C 6.375 -5.6875 6.640625 -5.59375 6.828125 -5.40625 C 7.015625 -5.226562 7.109375 -5.003906 7.109375 -4.734375 C 7.109375 -4.460938 7.015625 -4.238281 6.828125 -4.0625 C 6.640625 -3.882812 6.375 -3.796875 6.03125 -3.796875 L 3.109375 -3.796875 L 3.109375 -1.890625 L 7.390625 -1.890625 C 7.722656 -1.890625 7.984375 -1.800781 8.171875 -1.625 C 8.367188 -1.445312 8.46875 -1.222656 8.46875 -0.953125 C 8.46875 -0.679688 8.367188 -0.453125 8.171875 -0.265625 C 7.984375 -0.0859375 7.722656 0 7.390625 0 Z M 2.03125 0 "/></g></g></g><g fill="rgb(68.629456%, 51.759338%, 50.19989%)" fill-opacity="1"><g transform="translate(62.791369, 167.33024)"><g><path d="M 1.21875 0.0625 C 0.945312 0.0625 0.71875 -0.0195312 0.53125 -0.1875 C 0.351562 -0.363281 0.265625 -0.570312 0.265625 -0.8125 C 0.265625 -1.019531 0.304688 -1.1875 0.390625 -1.3125 C 0.484375 -1.445312 0.578125 -1.570312 0.671875 -1.6875 L 2.234375 -3.515625 L 0.875 -5.078125 C 0.757812 -5.203125 0.660156 -5.328125 0.578125 -5.453125 C 0.503906 -5.585938 0.46875 -5.753906 0.46875 -5.953125 C 0.46875 -6.191406 0.554688 -6.398438 0.734375 -6.578125 C 0.921875 -6.753906 1.148438 -6.84375 1.421875 -6.84375 C 1.628906 -6.84375 1.789062 -6.800781 1.90625 -6.71875 C 2.03125 -6.644531 2.117188 -6.570312 2.171875 -6.5 L 3.453125 -4.875 L 3.59375 -4.875 L 4.875 -6.5 C 4.925781 -6.570312 5.007812 -6.644531 5.125 -6.71875 C 5.25 -6.800781 5.414062 -6.84375 5.625 -6.84375 C 5.894531 -6.84375 6.117188 -6.753906 6.296875 -6.578125 C 6.472656 -6.398438 6.5625 -6.191406 6.5625 -5.953125 C 6.5625 -5.753906 6.523438 -5.585938 6.453125 -5.453125 C 6.378906 -5.328125 6.28125 -5.203125 6.15625 -5.078125 L 4.8125 -3.515625 L 6.359375 -1.6875 C 6.460938 -1.570312 6.554688 -1.445312 6.640625 -1.3125 C 6.734375 -1.1875 6.78125 -1.019531 6.78125 -0.8125 C 6.78125 -0.570312 6.6875 -0.363281 6.5 -0.1875 C 6.320312 -0.0195312 6.097656 0.0625 5.828125 0.0625 C 5.617188 0.0625 5.453125 0.0234375 5.328125 -0.046875 C 5.210938 -0.117188 5.128906 -0.191406 5.078125 -0.265625 L 3.59375 -2.171875 L 3.453125 -2.171875 L 1.96875 -0.265625 C 1.914062 -0.191406 1.828125 -0.117188 1.703125 -0.046875 C 1.585938 0.0234375 1.425781 0.0625 1.21875 0.0625 Z M 1.21875 0.0625 "/></g></g></g><g fill="rgb(68.629456%, 51.759338%, 50.19989%)" fill-opacity="1"><g transform="translate(71.031332, 167.33024)"><g><path d="M 1.765625 2.984375 C 1.492188 2.984375 1.265625 2.894531 1.078125 2.71875 C 0.898438 2.539062 0.8125 2.332031 0.8125 2.09375 L 0.8125 -5.953125 C 0.8125 -6.191406 0.898438 -6.398438 1.078125 -6.578125 C 1.265625 -6.753906 1.492188 -6.84375 1.765625 -6.84375 C 1.929688 -6.84375 2.078125 -6.804688 2.203125 -6.734375 C 2.328125 -6.660156 2.425781 -6.582031 2.5 -6.5 C 2.582031 -6.40625 2.648438 -6.289062 2.703125 -6.15625 L 2.84375 -6.15625 C 2.957031 -6.3125 3.097656 -6.445312 3.265625 -6.5625 C 3.410156 -6.664062 3.585938 -6.757812 3.796875 -6.84375 C 4.003906 -6.9375 4.25 -6.984375 4.53125 -6.984375 C 4.882812 -6.984375 5.222656 -6.910156 5.546875 -6.765625 C 5.867188 -6.628906 6.148438 -6.429688 6.390625 -6.171875 C 6.640625 -5.921875 6.832031 -5.617188 6.96875 -5.265625 C 7.113281 -4.910156 7.1875 -4.507812 7.1875 -4.0625 L 7.1875 -2.703125 C 7.1875 -2.265625 7.113281 -1.863281 6.96875 -1.5 C 6.832031 -1.144531 6.640625 -0.84375 6.390625 -0.59375 C 6.148438 -0.34375 5.867188 -0.144531 5.546875 0 C 5.222656 0.132812 4.882812 0.203125 4.53125 0.203125 C 4.25 0.203125 4.003906 0.160156 3.796875 0.078125 C 3.585938 -0.00390625 3.410156 -0.0976562 3.265625 -0.203125 C 3.097656 -0.316406 2.957031 -0.453125 2.84375 -0.609375 L 2.703125 -0.609375 L 2.703125 2.09375 C 2.703125 2.332031 2.613281 2.539062 2.4375 2.71875 C 2.257812 2.894531 2.035156 2.984375 1.765625 2.984375 Z M 4 -1.421875 C 4.375 -1.421875 4.679688 -1.539062 4.921875 -1.78125 C 5.160156 -2.019531 5.28125 -2.328125 5.28125 -2.703125 L 5.28125 -4.0625 C 5.28125 -4.445312 5.160156 -4.753906 4.921875 -4.984375 C 4.679688 -5.222656 4.375 -5.34375 4 -5.34375 C 3.613281 -5.34375 3.300781 -5.222656 3.0625 -4.984375 C 2.820312 -4.753906 2.703125 -4.445312 2.703125 -4.0625 L 2.703125 -2.703125 C 2.703125 -2.328125 2.820312 -2.019531 3.0625 -1.78125 C 3.300781 -1.539062 3.613281 -1.421875 4 -1.421875 Z M 4 -1.421875 "/></g></g></g><g fill="rgb(68.629456%, 51.759338%, 50.19989%)" fill-opacity="1"><g transform="translate(80.016616, 167.33024)"><g><path d="M 1.765625 0.0625 C 1.492188 0.0625 1.265625 -0.0195312 1.078125 -0.1875 C 0.898438 -0.363281 0.8125 -0.570312 0.8125 -0.8125 L 0.8125 -8.734375 C 0.8125 -8.972656 0.898438 -9.179688 1.078125 -9.359375 C 1.265625 -9.535156 1.492188 -9.625 1.765625 -9.625 C 2.035156 -9.625 2.257812 -9.535156 2.4375 -9.359375 C 2.613281 -9.179688 2.703125 -8.972656 2.703125 -8.734375 L 2.703125 -0.8125 C 2.703125 -0.570312 2.613281 -0.363281 2.4375 -0.1875 C 2.257812 -0.0195312 2.035156 0.0625 1.765625 0.0625 Z M 1.765625 0.0625 "/></g></g></g><g fill="rgb(68.629456%, 51.759338%, 50.19989%)" fill-opacity="1"><g transform="translate(84.733233, 167.33024)"><g><path d="M 3.859375 0.203125 C 3.378906 0.203125 2.941406 0.125 2.546875 -0.03125 C 2.148438 -0.1875 1.804688 -0.394531 1.515625 -0.65625 C 1.234375 -0.925781 1.007812 -1.238281 0.84375 -1.59375 C 0.6875 -1.945312 0.609375 -2.316406 0.609375 -2.703125 L 0.609375 -4.0625 C 0.609375 -4.445312 0.6875 -4.816406 0.84375 -5.171875 C 1.007812 -5.523438 1.234375 -5.832031 1.515625 -6.09375 C 1.804688 -6.363281 2.148438 -6.578125 2.546875 -6.734375 C 2.941406 -6.898438 3.378906 -6.984375 3.859375 -6.984375 C 4.328125 -6.984375 4.757812 -6.898438 5.15625 -6.734375 C 5.5625 -6.578125 5.90625 -6.363281 6.1875 -6.09375 C 6.476562 -5.832031 6.703125 -5.523438 6.859375 -5.171875 C 7.023438 -4.816406 7.109375 -4.445312 7.109375 -4.0625 L 7.109375 -2.703125 C 7.109375 -2.316406 7.023438 -1.945312 6.859375 -1.59375 C 6.703125 -1.238281 6.476562 -0.925781 6.1875 -0.65625 C 5.90625 -0.394531 5.5625 -0.1875 5.15625 -0.03125 C 4.757812 0.125 4.328125 0.203125 3.859375 0.203125 Z M 3.859375 -1.421875 C 4.265625 -1.421875 4.59375 -1.539062 4.84375 -1.78125 C 5.09375 -2.019531 5.21875 -2.328125 5.21875 -2.703125 L 5.21875 -4.0625 C 5.21875 -4.445312 5.09375 -4.753906 4.84375 -4.984375 C 4.59375 -5.222656 4.265625 -5.34375 3.859375 -5.34375 C 3.453125 -5.34375 3.125 -5.222656 2.875 -4.984375 C 2.625 -4.753906 2.5 -4.445312 2.5 -4.0625 L 2.5 -2.703125 C 2.5 -2.328125 2.625 -2.019531 2.875 -1.78125 C 3.125 -1.539062 3.453125 -1.421875 3.859375 -1.421875 Z M 3.859375 -1.421875 "/></g></g></g><g fill="rgb(68.629456%, 51.759338%, 50.19989%)" fill-opacity="1"><g transform="translate(93.65076, 167.33024)"><g><path d="M 1.765625 0.0625 C 1.492188 0.0625 1.265625 -0.0195312 1.078125 -0.1875 C 0.898438 -0.363281 0.8125 -0.570312 0.8125 -0.8125 L 0.8125 -5.953125 C 0.8125 -6.191406 0.898438 -6.398438 1.078125 -6.578125 C 1.265625 -6.753906 1.492188 -6.84375 1.765625 -6.84375 C 1.929688 -6.84375 2.078125 -6.804688 2.203125 -6.734375 C 2.328125 -6.660156 2.425781 -6.582031 2.5 -6.5 C 2.582031 -6.40625 2.648438 -6.289062 2.703125 -6.15625 L 2.84375 -6.15625 C 2.945312 -6.289062 3.066406 -6.414062 3.203125 -6.53125 C 3.328125 -6.625 3.472656 -6.707031 3.640625 -6.78125 C 3.804688 -6.863281 3.992188 -6.90625 4.203125 -6.90625 L 4.8125 -6.90625 C 5.03125 -6.90625 5.21875 -6.828125 5.375 -6.671875 C 5.539062 -6.515625 5.625 -6.320312 5.625 -6.09375 C 5.625 -5.863281 5.539062 -5.671875 5.375 -5.515625 C 5.21875 -5.359375 5.03125 -5.28125 4.8125 -5.28125 L 4 -5.28125 C 3.613281 -5.28125 3.300781 -5.160156 3.0625 -4.921875 C 2.820312 -4.679688 2.703125 -4.375 2.703125 -4 L 2.703125 -0.8125 C 2.703125 -0.570312 2.613281 -0.363281 2.4375 -0.1875 C 2.257812 -0.0195312 2.035156 0.0625 1.765625 0.0625 Z M 1.765625 0.0625 "/></g></g></g><g fill="rgb(68.629456%, 51.759338%, 50.19989%)" fill-opacity="1"><g transform="translate(100.467837, 167.33024)"><g><path d="M 3.859375 0.203125 C 3.378906 0.203125 2.941406 0.125 2.546875 -0.03125 C 2.148438 -0.1875 1.804688 -0.394531 1.515625 -0.65625 C 1.234375 -0.925781 1.007812 -1.238281 0.84375 -1.59375 C 0.6875 -1.945312 0.609375 -2.316406 0.609375 -2.703125 L 0.609375 -4.0625 C 0.609375 -4.445312 0.6875 -4.816406 0.84375 -5.171875 C 1 -5.523438 1.21875 -5.832031 1.5 -6.09375 C 1.789062 -6.363281 2.128906 -6.578125 2.515625 -6.734375 C 2.910156 -6.898438 3.335938 -6.984375 3.796875 -6.984375 C 4.253906 -6.984375 4.675781 -6.898438 5.0625 -6.734375 C 5.457031 -6.578125 5.796875 -6.363281 6.078125 -6.09375 C 6.359375 -5.832031 6.578125 -5.523438 6.734375 -5.171875 C 6.898438 -4.816406 6.984375 -4.445312 6.984375 -4.0625 L 6.984375 -3.59375 C 6.984375 -3.351562 6.890625 -3.144531 6.703125 -2.96875 C 6.523438 -2.789062 6.300781 -2.703125 6.03125 -2.703125 L 2.5 -2.703125 C 2.5 -2.328125 2.625 -2.019531 2.875 -1.78125 C 3.125 -1.539062 3.453125 -1.421875 3.859375 -1.421875 C 4.171875 -1.421875 4.414062 -1.453125 4.59375 -1.515625 C 4.78125 -1.578125 4.941406 -1.644531 5.078125 -1.71875 C 5.210938 -1.800781 5.335938 -1.875 5.453125 -1.9375 C 5.578125 -2 5.722656 -2.03125 5.890625 -2.03125 C 6.128906 -2.03125 6.320312 -1.957031 6.46875 -1.8125 C 6.625 -1.664062 6.703125 -1.488281 6.703125 -1.28125 C 6.703125 -1.132812 6.644531 -0.972656 6.53125 -0.796875 C 6.414062 -0.628906 6.242188 -0.46875 6.015625 -0.3125 C 5.785156 -0.164062 5.488281 -0.046875 5.125 0.046875 C 4.769531 0.148438 4.347656 0.203125 3.859375 0.203125 Z M 5.078125 -4.125 C 5.078125 -4.46875 4.957031 -4.753906 4.71875 -4.984375 C 4.476562 -5.222656 4.171875 -5.34375 3.796875 -5.34375 C 3.410156 -5.34375 3.097656 -5.222656 2.859375 -4.984375 C 2.617188 -4.753906 2.5 -4.46875 2.5 -4.125 Z M 5.078125 -4.125 "/></g></g></g><g fill="rgb(68.629456%, 51.759338%, 50.19989%)" fill-opacity="1"><g transform="translate(109.182099, 167.33024)"><g/></g></g><g fill="rgb(68.629456%, 51.759338%, 50.19989%)" fill-opacity="1"><g transform="translate(113.966472, 167.33024)"><g><path d="M 3.859375 0.265625 C 3.484375 0.265625 3.164062 0.144531 2.90625 -0.09375 C 2.65625 -0.332031 2.476562 -0.640625 2.375 -1.015625 L 0.46875 -7.59375 C 0.4375 -7.71875 0.398438 -7.84375 0.359375 -7.96875 C 0.335938 -8.070312 0.316406 -8.179688 0.296875 -8.296875 C 0.273438 -8.410156 0.265625 -8.515625 0.265625 -8.609375 C 0.265625 -8.878906 0.367188 -9.113281 0.578125 -9.3125 C 0.785156 -9.519531 1.046875 -9.625 1.359375 -9.625 C 1.953125 -9.625 2.332031 -9.304688 2.5 -8.671875 L 3.921875 -3.59375 L 4.0625 -3.59375 L 5.421875 -8.46875 C 5.503906 -8.769531 5.664062 -9.035156 5.90625 -9.265625 C 6.144531 -9.503906 6.4375 -9.625 6.78125 -9.625 C 7.113281 -9.625 7.398438 -9.503906 7.640625 -9.265625 C 7.878906 -9.035156 8.039062 -8.769531 8.125 -8.46875 L 9.484375 -3.59375 L 9.625 -3.59375 L 11.046875 -8.671875 C 11.210938 -9.304688 11.59375 -9.625 12.1875 -9.625 C 12.5 -9.625 12.757812 -9.519531 12.96875 -9.3125 C 13.175781 -9.113281 13.28125 -8.878906 13.28125 -8.609375 C 13.28125 -8.515625 13.265625 -8.410156 13.234375 -8.296875 C 13.210938 -8.179688 13.191406 -8.070312 13.171875 -7.96875 L 13.078125 -7.59375 L 11.171875 -1.015625 C 11.066406 -0.640625 10.882812 -0.332031 10.625 -0.09375 C 10.375 0.144531 10.0625 0.265625 9.6875 0.265625 C 9.300781 0.265625 8.976562 0.144531 8.71875 -0.09375 C 8.46875 -0.332031 8.296875 -0.640625 8.203125 -1.015625 L 6.84375 -5.890625 L 6.703125 -5.890625 L 5.34375 -1.015625 C 5.25 -0.640625 5.070312 -0.332031 4.8125 -0.09375 C 4.5625 0.144531 4.242188 0.265625 3.859375 0.265625 Z M 3.859375 0.265625 "/></g></g></g><g fill="rgb(68.629456%, 51.759338%, 50.19989%)" fill-opacity="1"><g transform="translate(128.711084, 167.33024)"><g><path d="M 1.828125 0.0625 C 1.554688 0.0625 1.328125 -0.0195312 1.140625 -0.1875 C 0.960938 -0.363281 0.875 -0.570312 0.875 -0.8125 L 0.875 -5.953125 C 0.875 -6.191406 0.960938 -6.398438 1.140625 -6.578125 C 1.328125 -6.753906 1.554688 -6.84375 1.828125 -6.84375 C 2.097656 -6.84375 2.320312 -6.753906 2.5 -6.578125 C 2.6875 -6.398438 2.78125 -6.191406 2.78125 -5.953125 L 2.78125 -0.8125 C 2.78125 -0.570312 2.6875 -0.363281 2.5 -0.1875 C 2.320312 -0.0195312 2.097656 0.0625 1.828125 0.0625 Z M 1.828125 -7.859375 C 1.523438 -7.859375 1.28125 -7.945312 1.09375 -8.125 C 0.90625 -8.3125 0.8125 -8.539062 0.8125 -8.8125 C 0.8125 -9.082031 0.90625 -9.304688 1.09375 -9.484375 C 1.28125 -9.660156 1.523438 -9.75 1.828125 -9.75 C 2.140625 -9.75 2.382812 -9.660156 2.5625 -9.484375 C 2.75 -9.304688 2.84375 -9.082031 2.84375 -8.8125 C 2.84375 -8.539062 2.75 -8.3125 2.5625 -8.125 C 2.375 -7.945312 2.128906 -7.859375 1.828125 -7.859375 Z M 1.828125 -7.859375 "/></g></g></g><g fill="rgb(68.629456%, 51.759338%, 50.19989%)" fill-opacity="1"><g transform="translate(133.563216, 167.33024)"><g><path d="M 3.859375 0 C 3.503906 0 3.171875 -0.0625 2.859375 -0.1875 C 2.554688 -0.3125 2.289062 -0.484375 2.0625 -0.703125 C 1.84375 -0.929688 1.671875 -1.191406 1.546875 -1.484375 C 1.421875 -1.773438 1.359375 -2.09375 1.359375 -2.4375 L 1.359375 -5.140625 L 1.15625 -5.140625 C 0.882812 -5.140625 0.664062 -5.21875 0.5 -5.375 C 0.34375 -5.53125 0.265625 -5.722656 0.265625 -5.953125 C 0.265625 -6.191406 0.34375 -6.390625 0.5 -6.546875 C 0.664062 -6.703125 0.882812 -6.78125 1.15625 -6.78125 L 1.359375 -6.78125 L 1.359375 -7.65625 C 1.359375 -7.882812 1.445312 -8.085938 1.625 -8.265625 C 1.800781 -8.441406 2.023438 -8.53125 2.296875 -8.53125 C 2.566406 -8.53125 2.789062 -8.441406 2.96875 -8.265625 C 3.15625 -8.085938 3.25 -7.882812 3.25 -7.65625 L 3.25 -6.78125 L 4.671875 -6.78125 C 4.941406 -6.78125 5.15625 -6.703125 5.3125 -6.546875 C 5.46875 -6.390625 5.546875 -6.191406 5.546875 -5.953125 C 5.546875 -5.722656 5.46875 -5.53125 5.3125 -5.375 C 5.15625 -5.21875 4.941406 -5.140625 4.671875 -5.140625 L 3.25 -5.140625 L 3.25 -2.4375 C 3.25 -2.164062 3.304688 -1.960938 3.421875 -1.828125 C 3.546875 -1.691406 3.710938 -1.625 3.921875 -1.625 L 5.015625 -1.625 C 5.234375 -1.625 5.421875 -1.546875 5.578125 -1.390625 C 5.742188 -1.234375 5.828125 -1.039062 5.828125 -0.8125 C 5.828125 -0.582031 5.742188 -0.390625 5.578125 -0.234375 C 5.421875 -0.078125 5.234375 0 5.015625 0 Z M 3.859375 0 "/></g></g></g><g fill="rgb(68.629456%, 51.759338%, 50.19989%)" fill-opacity="1"><g transform="translate(140.719072, 167.33024)"><g><path d="M 1.765625 0.0625 C 1.492188 0.0625 1.265625 -0.0195312 1.078125 -0.1875 C 0.898438 -0.363281 0.8125 -0.570312 0.8125 -0.8125 L 0.8125 -8.734375 C 0.8125 -8.972656 0.898438 -9.179688 1.078125 -9.359375 C 1.265625 -9.535156 1.492188 -9.625 1.765625 -9.625 C 2.035156 -9.625 2.257812 -9.535156 2.4375 -9.359375 C 2.613281 -9.179688 2.703125 -8.972656 2.703125 -8.734375 L 2.703125 -6.15625 L 2.84375 -6.15625 C 2.957031 -6.3125 3.097656 -6.445312 3.265625 -6.5625 C 3.410156 -6.664062 3.585938 -6.757812 3.796875 -6.84375 C 4.003906 -6.9375 4.25 -6.984375 4.53125 -6.984375 C 4.875 -6.984375 5.195312 -6.910156 5.5 -6.765625 C 5.800781 -6.628906 6.066406 -6.4375 6.296875 -6.1875 C 6.523438 -5.9375 6.707031 -5.632812 6.84375 -5.28125 C 6.976562 -4.9375 7.046875 -4.550781 7.046875 -4.125 L 7.046875 -0.8125 C 7.046875 -0.570312 6.953125 -0.363281 6.765625 -0.1875 C 6.585938 -0.0195312 6.363281 0.0625 6.09375 0.0625 C 5.820312 0.0625 5.59375 -0.0195312 5.40625 -0.1875 C 5.226562 -0.363281 5.140625 -0.570312 5.140625 -0.8125 L 5.140625 -4.125 C 5.140625 -4.46875 5.019531 -4.753906 4.78125 -4.984375 C 4.550781 -5.222656 4.265625 -5.34375 3.921875 -5.34375 C 3.578125 -5.34375 3.285156 -5.222656 3.046875 -4.984375 C 2.816406 -4.753906 2.703125 -4.46875 2.703125 -4.125 L 2.703125 -0.8125 C 2.703125 -0.570312 2.613281 -0.363281 2.4375 -0.1875 C 2.257812 -0.0195312 2.035156 0.0625 1.765625 0.0625 Z M 1.765625 0.0625 "/></g></g></g><g fill="rgb(68.629456%, 51.759338%, 50.19989%)" fill-opacity="1"><g transform="translate(149.704355, 167.33024)"><g/></g></g><g fill="rgb(68.629456%, 51.759338%, 50.19989%)" fill-opacity="1"><g transform="translate(154.488728, 167.33024)"><g><path d="M 4.875 0.265625 C 4.28125 0.265625 3.738281 0.175781 3.25 0 C 2.769531 -0.1875 2.359375 -0.445312 2.015625 -0.78125 C 1.671875 -1.113281 1.40625 -1.515625 1.21875 -1.984375 C 1.039062 -2.453125 0.953125 -2.960938 0.953125 -3.515625 L 0.953125 -8.609375 C 0.953125 -8.878906 1.054688 -9.113281 1.265625 -9.3125 C 1.472656 -9.519531 1.726562 -9.625 2.03125 -9.625 C 2.34375 -9.625 2.597656 -9.519531 2.796875 -9.3125 C 3.003906 -9.113281 3.109375 -8.878906 3.109375 -8.609375 L 3.109375 -3.515625 C 3.109375 -2.898438 3.265625 -2.429688 3.578125 -2.109375 C 3.898438 -1.785156 4.332031 -1.625 4.875 -1.625 C 5.414062 -1.625 5.84375 -1.785156 6.15625 -2.109375 C 6.476562 -2.429688 6.640625 -2.898438 6.640625 -3.515625 L 6.640625 -8.609375 C 6.640625 -8.878906 6.742188 -9.113281 6.953125 -9.3125 C 7.160156 -9.519531 7.414062 -9.625 7.71875 -9.625 C 8.03125 -9.625 8.289062 -9.519531 8.5 -9.3125 C 8.707031 -9.113281 8.8125 -8.878906 8.8125 -8.609375 L 8.8125 -3.515625 C 8.8125 -2.960938 8.71875 -2.453125 8.53125 -1.984375 C 8.34375 -1.515625 8.078125 -1.113281 7.734375 -0.78125 C 7.390625 -0.445312 6.972656 -0.1875 6.484375 0 C 6.003906 0.175781 5.46875 0.265625 4.875 0.265625 Z M 4.875 0.265625 "/></g></g></g><g fill="rgb(68.629456%, 51.759338%, 50.19989%)" fill-opacity="1"><g transform="translate(165.438953, 167.33024)"><g><path d="M 3.1875 0.203125 C 2.757812 0.203125 2.367188 0.144531 2.015625 0.03125 C 1.660156 -0.0703125 1.351562 -0.207031 1.09375 -0.375 C 0.832031 -0.539062 0.628906 -0.726562 0.484375 -0.9375 C 0.335938 -1.144531 0.265625 -1.351562 0.265625 -1.5625 C 0.265625 -1.769531 0.34375 -1.941406 0.5 -2.078125 C 0.65625 -2.222656 0.847656 -2.296875 1.078125 -2.296875 C 1.273438 -2.296875 1.441406 -2.242188 1.578125 -2.140625 C 1.722656 -2.035156 1.863281 -1.914062 2 -1.78125 C 2.144531 -1.65625 2.304688 -1.539062 2.484375 -1.4375 C 2.660156 -1.332031 2.894531 -1.28125 3.1875 -1.28125 C 3.59375 -1.28125 3.882812 -1.347656 4.0625 -1.484375 C 4.238281 -1.628906 4.328125 -1.789062 4.328125 -1.96875 C 4.328125 -2.144531 4.226562 -2.28125 4.03125 -2.375 C 3.84375 -2.476562 3.601562 -2.566406 3.3125 -2.640625 C 3.03125 -2.710938 2.71875 -2.789062 2.375 -2.875 C 2.03125 -2.957031 1.710938 -3.070312 1.421875 -3.21875 C 1.128906 -3.375 0.882812 -3.578125 0.6875 -3.828125 C 0.5 -4.078125 0.40625 -4.40625 0.40625 -4.8125 C 0.40625 -5.101562 0.46875 -5.378906 0.59375 -5.640625 C 0.71875 -5.898438 0.898438 -6.128906 1.140625 -6.328125 C 1.378906 -6.523438 1.675781 -6.679688 2.03125 -6.796875 C 2.382812 -6.921875 2.789062 -6.984375 3.25 -6.984375 C 3.695312 -6.984375 4.085938 -6.925781 4.421875 -6.8125 C 4.765625 -6.695312 5.054688 -6.554688 5.296875 -6.390625 C 5.535156 -6.234375 5.71875 -6.054688 5.84375 -5.859375 C 5.96875 -5.671875 6.03125 -5.5 6.03125 -5.34375 C 6.03125 -5.144531 5.953125 -4.972656 5.796875 -4.828125 C 5.640625 -4.679688 5.445312 -4.609375 5.21875 -4.609375 C 5.007812 -4.609375 4.84375 -4.648438 4.71875 -4.734375 C 4.59375 -4.828125 4.460938 -4.929688 4.328125 -5.046875 C 4.203125 -5.160156 4.054688 -5.257812 3.890625 -5.34375 C 3.734375 -5.4375 3.519531 -5.484375 3.25 -5.484375 C 2.90625 -5.484375 2.660156 -5.425781 2.515625 -5.3125 C 2.367188 -5.195312 2.296875 -5.050781 2.296875 -4.875 C 2.296875 -4.695312 2.394531 -4.554688 2.59375 -4.453125 C 2.789062 -4.359375 3.03125 -4.273438 3.3125 -4.203125 C 3.601562 -4.128906 3.921875 -4.046875 4.265625 -3.953125 C 4.609375 -3.867188 4.925781 -3.753906 5.21875 -3.609375 C 5.507812 -3.460938 5.75 -3.265625 5.9375 -3.015625 C 6.132812 -2.765625 6.234375 -2.4375 6.234375 -2.03125 C 6.234375 -1.738281 6.164062 -1.457031 6.03125 -1.1875 C 5.894531 -0.925781 5.695312 -0.691406 5.4375 -0.484375 C 5.175781 -0.273438 4.859375 -0.109375 4.484375 0.015625 C 4.109375 0.140625 3.675781 0.203125 3.1875 0.203125 Z M 3.1875 0.203125 "/></g></g></g></svg>